{"glyphs":{"0":{"ha":1290,"x_min":0,"x_max":0,"o":"m 645 1003 b 43 486 230 1003 43 819 b 645 -31 43 153 230 -31 b 1248 486 1060 -31 1248 153 b 645 1003 1248 819 1060 1003 z m 645 207 b 383 486 454 207 383 307 b 645 765 383 665 454 765 b 907 486 836 765 907 665 b 645 207 907 307 836 207 z "},"1":{"ha":724,"x_min":0,"x_max":0,"o":"m 651 972 l 377 972 b 109 785 347 861 285 785 l 29 785 l 29 571 l 327 571 l 327 0 l 651 0 z "},"2":{"ha":1201,"x_min":0,"x_max":0,"o":"m 559 307 l 792 365 b 1150 700 1011 416 1150 501 b 593 1003 1150 935 943 1003 b 49 631 248 1003 66 897 l 401 631 b 607 777 411 737 494 777 b 792 688 720 777 792 752 b 643 567 792 625 744 599 l 464 510 b 32 30 290 455 32 354 l 32 0 l 1148 0 l 1148 229 l 399 229 b 559 307 416 254 474 287 z "},"3":{"ha":1200,"x_min":0,"x_max":0,"o":"m 975 506 l 975 514 b 1134 713 1081 533 1134 598 b 585 1003 1134 933 965 1003 b 55 673 227 1003 70 910 l 384 673 b 585 786 392 750 460 786 b 796 695 709 786 796 765 b 636 598 796 625 736 598 l 438 598 l 438 398 l 630 398 b 806 294 743 398 806 372 b 585 195 806 217 715 195 b 368 319 449 195 376 231 l 21 319 b 585 -31 35 71 173 -31 b 1163 279 1016 -31 1163 58 b 975 506 1163 415 1096 478 z "},"4":{"ha":1176,"x_min":0,"x_max":0,"o":"m 667 191 l 667 0 l 979 0 l 979 191 l 1146 191 l 1146 403 l 979 403 l 979 972 l 592 972 l 23 429 l 23 191 z m 667 403 l 333 403 l 333 411 l 658 721 l 667 721 z "},"5":{"ha":1200,"x_min":0,"x_max":0,"o":"m 1091 972 l 103 972 l 71 426 l 405 426 b 600 459 426 436 488 459 b 810 327 741 459 810 423 b 596 195 810 231 741 195 b 392 290 457 195 402 230 l 39 290 b 596 -31 51 79 188 -31 b 1161 332 1011 -31 1161 79 b 654 682 1161 585 1011 682 b 378 626 510 682 429 649 l 369 626 l 377 759 l 1091 759 z "},"6":{"ha":1224,"x_min":0,"x_max":0,"o":"m 670 632 b 385 564 578 632 450 607 l 377 564 b 635 790 390 744 489 790 b 830 692 744 790 819 760 l 1178 692 b 627 1003 1164 838 1038 1003 b 43 485 215 1003 43 825 b 633 -31 43 115 218 -31 b 1185 316 1017 -31 1185 93 b 670 632 1185 538 1016 632 z m 621 425 b 834 306 753 425 834 395 b 621 182 834 215 753 182 b 401 306 489 182 401 215 b 621 425 401 395 489 425 z "},"7":{"ha":1138,"x_min":0,"x_max":0,"o":"m 18 972 l 18 724 l 749 724 l 749 715 b 246 0 542 527 270 296 l 673 0 b 1037 648 699 306 897 458 b 1107 848 1082 706 1107 758 l 1107 972 z "},"8":{"ha":1247,"x_min":0,"x_max":0,"o":"m 623 1003 b 64 713 242 1003 64 926 b 230 514 64 608 119 544 l 230 506 b 43 270 109 478 43 415 b 623 -31 43 56 214 -31 b 1204 270 1032 -31 1204 56 b 1016 506 1204 415 1138 478 l 1016 514 b 1183 713 1127 544 1183 608 b 623 1003 1183 926 1005 1003 z m 623 786 b 845 690 766 786 845 765 b 623 594 845 618 766 594 b 401 690 480 594 401 618 b 623 786 401 765 481 786 z m 623 185 b 400 291 478 185 400 208 b 623 398 400 374 482 398 b 847 291 765 398 847 374 b 623 185 847 208 769 185 z "},"9":{"ha":1210,"x_min":0,"x_max":0,"o":"m 541 340 b 825 409 632 340 761 365 l 834 409 b 576 182 820 228 722 182 b 380 280 466 182 392 213 l 32 280 b 583 -31 46 135 172 -31 b 1168 488 995 -31 1168 147 b 577 1003 1168 857 992 1003 b 25 656 193 1003 25 880 b 541 340 25 435 194 340 z m 589 547 b 377 666 457 547 377 577 b 589 790 377 757 457 790 b 809 666 721 790 809 757 b 589 547 809 577 721 547 z "},"A":{"ha":1331,"x_min":0,"x_max":0,"o":"m 986 0 l 1335 0 l 878 992 l 456 992 l -5 0 l 345 0 l 413 155 l 919 155 z m 513 386 l 661 725 l 669 725 l 818 386 z "},"Á":{"ha":1331,"x_min":0,"x_max":0,"o":"m 1075 1285 l 653 1285 l 542 1080 l 810 1080 z m 986 0 l 1335 0 l 878 992 l 456 992 l -5 0 l 345 0 l 413 155 l 919 155 z m 513 386 l 661 725 l 669 725 l 818 386 z "},"Ă":{"ha":1331,"x_min":0,"x_max":0,"o":"m 668 1063 b 1000 1289 823 1063 996 1133 l 754 1289 b 668 1231 748 1246 716 1231 b 581 1289 619 1231 587 1246 l 336 1289 b 668 1063 341 1133 512 1063 z m 986 0 l 1335 0 l 878 992 l 456 992 l -5 0 l 345 0 l 413 155 l 919 155 z m 513 386 l 661 725 l 669 725 l 818 386 z "},"Â":{"ha":1331,"x_min":0,"x_max":0,"o":"m 663 1178 l 672 1178 l 749 1080 l 1068 1080 l 886 1284 l 449 1284 l 267 1080 l 586 1080 z m 986 0 l 1335 0 l 878 992 l 456 992 l -5 0 l 345 0 l 413 155 l 919 155 z m 513 386 l 661 725 l 669 725 l 818 386 z "},"Ä":{"ha":1331,"x_min":0,"x_max":0,"o":"m 606 1253 l 318 1253 l 318 1081 l 606 1081 z m 1017 1253 l 729 1253 l 729 1081 l 1017 1081 z m 986 0 l 1335 0 l 878 992 l 456 992 l -5 0 l 345 0 l 413 155 l 919 155 z m 513 386 l 661 725 l 669 725 l 818 386 z "},"À":{"ha":1331,"x_min":0,"x_max":0,"o":"m 806 1080 l 694 1285 l 273 1285 l 538 1080 z m 986 0 l 1335 0 l 878 992 l 456 992 l -5 0 l 345 0 l 413 155 l 919 155 z m 513 386 l 661 725 l 669 725 l 818 386 z "},"Ā":{"ha":1331,"x_min":0,"x_max":0,"o":"m 1000 1253 l 335 1253 l 335 1083 l 1000 1083 z m 986 0 l 1335 0 l 878 992 l 456 992 l -5 0 l 345 0 l 413 155 l 919 155 z m 513 386 l 661 725 l 669 725 l 818 386 z "},"Ą":{"ha":1331,"x_min":0,"x_max":0,"o":"m 1179 -131 b 1335 0 1179 -88 1237 -31 l 878 992 l 456 992 l -5 0 l 345 0 l 413 155 l 919 155 l 986 0 l 1089 0 b 914 -180 990 -36 914 -106 b 1191 -335 914 -276 1003 -335 b 1335 -322 1252 -335 1293 -332 l 1335 -172 b 1252 -183 1316 -176 1292 -183 b 1179 -131 1214 -183 1179 -169 z m 513 386 l 661 725 l 669 725 l 818 386 z "},"Å":{"ha":1331,"x_min":0,"x_max":0,"o":"m 669 1030 b 911 1221 803 1030 911 1103 b 669 1412 911 1339 803 1412 b 426 1221 534 1412 426 1339 b 669 1030 426 1103 534 1030 z m 669 1287 b 747 1221 711 1287 747 1262 b 669 1155 747 1180 711 1155 b 590 1221 626 1155 590 1180 b 669 1287 590 1262 626 1287 z m 986 0 l 1335 0 l 878 992 l 456 992 l -5 0 l 345 0 l 413 155 l 919 155 z m 513 386 l 661 725 l 669 725 l 818 386 z "},"Ã":{"ha":1331,"x_min":0,"x_max":0,"o":"m 549 1119 b 815 1055 605 1119 723 1055 b 1035 1288 913 1055 1035 1126 l 830 1288 b 785 1239 828 1253 821 1239 b 516 1303 729 1239 609 1303 b 299 1070 418 1303 299 1232 l 504 1070 b 549 1119 506 1105 513 1119 z m 986 0 l 1335 0 l 878 992 l 456 992 l -5 0 l 345 0 l 413 155 l 919 155 z m 513 386 l 661 725 l 669 725 l 818 386 z "},"Æ":{"ha":1950,"x_min":0,"x_max":0,"o":"m 1271 236 l 1271 394 l 1853 394 l 1853 614 l 1271 614 l 1271 753 l 1882 753 l 1882 992 l 704 992 l 0 0 l 381 0 l 486 155 l 965 155 l 965 0 l 1896 0 l 1896 236 z m 642 386 l 891 753 l 965 753 l 965 386 z "},"B":{"ha":1272,"x_min":0,"x_max":0,"o":"m 1052 532 l 1052 540 b 1192 735 1139 566 1192 627 b 853 992 1192 889 1099 992 l 73 992 l 73 0 l 879 0 b 1228 291 1133 0 1228 103 b 1052 532 1228 449 1150 508 z m 752 604 l 392 604 l 392 765 l 752 765 b 845 685 815 765 845 740 b 752 604 845 629 814 604 z m 771 224 l 392 224 l 392 407 l 771 407 b 877 316 849 407 877 377 b 771 224 877 254 849 224 z "},"C":{"ha":1347,"x_min":0,"x_max":0,"o":"m 926 605 l 1302 605 b 679 1024 1295 871 1064 1024 b 43 496 294 1024 43 857 b 679 -33 43 135 294 -33 b 1305 408 1064 -33 1298 121 l 924 408 b 679 226 918 314 868 226 b 394 496 490 226 394 328 b 679 766 394 664 490 766 b 926 605 868 766 922 671 z "},"Ć":{"ha":1347,"x_min":0,"x_max":0,"o":"m 1087 1285 l 665 1285 l 553 1080 l 821 1080 z m 926 605 l 1302 605 b 679 1024 1295 871 1064 1024 b 43 496 294 1024 43 857 b 679 -33 43 135 294 -33 b 1305 408 1064 -33 1298 121 l 924 408 b 679 226 918 314 868 226 b 394 496 490 226 394 328 b 679 766 394 664 490 766 b 926 605 868 766 922 671 z "},"Č":{"ha":1347,"x_min":0,"x_max":0,"o":"m 761 1285 l 683 1187 l 675 1187 l 597 1285 l 279 1285 l 461 1081 l 897 1081 l 1079 1285 z m 926 605 l 1302 605 b 679 1024 1295 871 1064 1024 b 43 496 294 1024 43 857 b 679 -33 43 135 294 -33 b 1305 408 1064 -33 1298 121 l 924 408 b 679 226 918 314 868 226 b 394 496 490 226 394 328 b 679 766 394 664 490 766 b 926 605 868 766 922 671 z "},"Ç":{"ha":1347,"x_min":0,"x_max":0,"o":"m 1305 408 l 924 408 b 679 226 918 314 868 226 b 394 496 490 226 394 328 b 679 766 394 664 490 766 b 926 605 868 766 922 671 l 1302 605 b 679 1024 1295 871 1064 1024 b 43 496 294 1024 43 857 b 612 -31 43 155 266 -12 l 550 -106 l 550 -176 l 559 -176 b 673 -165 587 -169 645 -165 b 755 -204 723 -165 755 -173 b 673 -244 755 -235 723 -244 b 484 -214 598 -244 562 -238 l 475 -214 l 475 -328 b 684 -353 553 -350 619 -353 b 971 -203 888 -353 971 -314 b 756 -66 971 -103 903 -66 b 721 -69 745 -66 728 -68 l 752 -31 b 1305 408 1093 -12 1298 140 z "},"Ĉ":{"ha":1347,"x_min":0,"x_max":0,"o":"m 761 1080 l 1079 1080 l 897 1284 l 461 1284 l 279 1080 l 597 1080 l 675 1178 l 683 1178 z m 926 605 l 1302 605 b 679 1024 1295 871 1064 1024 b 43 496 294 1024 43 857 b 679 -33 43 135 294 -33 b 1305 408 1064 -33 1298 121 l 924 408 b 679 226 918 314 868 226 b 394 496 490 226 394 328 b 679 766 394 664 490 766 b 926 605 868 766 922 671 z "},"Ċ":{"ha":1347,"x_min":0,"x_max":0,"o":"m 519 1081 l 839 1081 l 839 1253 l 519 1253 z m 926 605 l 1302 605 b 679 1024 1295 871 1064 1024 b 43 496 294 1024 43 857 b 679 -33 43 135 294 -33 b 1305 408 1064 -33 1298 121 l 924 408 b 679 226 918 314 868 226 b 394 496 490 226 394 328 b 679 766 394 664 490 766 b 926 605 868 766 922 671 z "},"D":{"ha":1288,"x_min":0,"x_max":0,"o":"m 682 992 l 73 992 l 73 0 l 682 0 b 1244 496 1048 0 1244 135 b 682 992 1244 857 1048 992 z m 617 740 b 893 496 797 740 893 674 b 617 252 893 318 797 252 l 392 252 l 392 740 z "},"Ð":{"ha":1311,"x_min":0,"x_max":0,"o":"m 706 992 l 97 992 l 97 584 l -5 584 l -5 409 l 97 409 l 97 0 l 706 0 b 1268 496 1072 0 1268 135 b 706 992 1268 857 1072 992 z m 641 252 l 416 252 l 416 409 l 635 409 l 635 584 l 416 584 l 416 740 l 641 740 b 917 496 821 740 917 674 b 641 252 917 318 821 252 z "},"Ď":{"ha":1288,"x_min":0,"x_max":0,"o":"m 673 1284 l 595 1186 l 587 1186 l 509 1284 l 191 1284 l 373 1080 l 809 1080 l 991 1284 z m 682 992 l 73 992 l 73 0 l 682 0 b 1244 496 1048 0 1244 135 b 682 992 1244 857 1048 992 z m 617 740 b 893 496 797 740 893 674 b 617 252 893 318 797 252 l 392 252 l 392 740 z "},"Đ":{"ha":1400,"x_min":0,"x_max":0,"o":"m 784 992 l 175 992 l 175 584 l 73 584 l 73 409 l 175 409 l 175 0 l 784 0 b 1347 496 1150 0 1347 135 b 784 992 1347 857 1150 992 z m 719 252 l 494 252 l 494 409 l 713 409 l 713 584 l 494 584 l 494 740 l 719 740 b 995 496 899 740 995 674 b 719 252 995 318 899 252 z "},"E":{"ha":1139,"x_min":0,"x_max":0,"o":"m 392 753 l 1071 753 l 1071 992 l 73 992 l 73 0 l 1086 0 l 1086 236 l 392 236 l 392 394 l 1043 394 l 1043 614 l 392 614 z "},"É":{"ha":1139,"x_min":0,"x_max":0,"o":"m 980 1285 l 558 1285 l 447 1080 l 715 1080 z m 392 753 l 1071 753 l 1071 992 l 73 992 l 73 0 l 1086 0 l 1086 236 l 392 236 l 392 394 l 1043 394 l 1043 614 l 392 614 z "},"Ĕ":{"ha":1139,"x_min":0,"x_max":0,"o":"m 905 1289 l 659 1289 b 572 1231 653 1246 621 1231 b 486 1289 524 1231 491 1246 l 241 1289 b 572 1063 245 1133 417 1063 b 905 1289 728 1063 900 1133 z m 392 753 l 1071 753 l 1071 992 l 73 992 l 73 0 l 1086 0 l 1086 236 l 392 236 l 392 394 l 1043 394 l 1043 614 l 392 614 z "},"Ě":{"ha":1139,"x_min":0,"x_max":0,"o":"m 654 1285 l 576 1187 l 568 1187 l 490 1285 l 172 1285 l 354 1081 l 790 1081 l 973 1285 z m 392 753 l 1071 753 l 1071 992 l 73 992 l 73 0 l 1086 0 l 1086 236 l 392 236 l 392 394 l 1043 394 l 1043 614 l 392 614 z "},"Ê":{"ha":1139,"x_min":0,"x_max":0,"o":"m 654 1080 l 973 1080 l 790 1284 l 354 1284 l 172 1080 l 490 1080 l 568 1178 l 576 1178 z m 392 753 l 1071 753 l 1071 992 l 73 992 l 73 0 l 1086 0 l 1086 236 l 392 236 l 392 394 l 1043 394 l 1043 614 l 392 614 z "},"Ë":{"ha":1139,"x_min":0,"x_max":0,"o":"m 223 1081 l 511 1081 l 511 1253 l 223 1253 z m 633 1081 l 922 1081 l 922 1253 l 633 1253 z m 392 753 l 1071 753 l 1071 992 l 73 992 l 73 0 l 1086 0 l 1086 236 l 392 236 l 392 394 l 1043 394 l 1043 614 l 392 614 z "},"Ė":{"ha":1139,"x_min":0,"x_max":0,"o":"m 413 1081 l 732 1081 l 732 1253 l 413 1253 z m 392 753 l 1071 753 l 1071 992 l 73 992 l 73 0 l 1086 0 l 1086 236 l 392 236 l 392 394 l 1043 394 l 1043 614 l 392 614 z "},"È":{"ha":1139,"x_min":0,"x_max":0,"o":"m 177 1285 l 443 1080 l 711 1080 l 599 1285 z m 392 753 l 1071 753 l 1071 992 l 73 992 l 73 0 l 1086 0 l 1086 236 l 392 236 l 392 394 l 1043 394 l 1043 614 l 392 614 z "},"Ē":{"ha":1139,"x_min":0,"x_max":0,"o":"m 905 1083 l 905 1253 l 240 1253 l 240 1083 z m 392 753 l 1071 753 l 1071 992 l 73 992 l 73 0 l 1086 0 l 1086 236 l 392 236 l 392 394 l 1043 394 l 1043 614 l 392 614 z "},"Ę":{"ha":1139,"x_min":0,"x_max":0,"o":"m 1086 0 l 1086 236 l 392 236 l 392 394 l 1043 394 l 1043 614 l 392 614 l 392 753 l 1071 753 l 1071 992 l 73 992 l 73 0 l 839 0 b 665 -180 740 -36 665 -106 b 942 -335 665 -276 753 -335 b 1086 -322 1002 -335 1044 -332 l 1086 -172 b 1003 -183 1066 -176 1043 -183 b 930 -131 964 -183 930 -169 b 1086 0 930 -88 988 -31 z "},"F":{"ha":1118,"x_min":0,"x_max":0,"o":"m 1074 743 l 1074 992 l 73 992 l 73 0 l 392 0 l 392 331 l 1043 331 l 1043 565 l 392 565 l 392 743 z "},"G":{"ha":1378,"x_min":0,"x_max":0,"o":"m 1312 553 l 727 553 l 727 348 l 957 348 b 703 215 957 313 895 215 b 394 496 490 215 394 318 b 693 766 394 664 490 766 b 933 647 897 766 926 671 l 1308 647 b 692 1024 1294 871 1093 1024 b 43 496 294 1024 43 857 b 703 -33 43 135 294 -33 b 1087 107 857 -33 991 9 l 1087 0 l 1312 0 z "},"Ğ":{"ha":1378,"x_min":0,"x_max":0,"o":"m 1025 1289 l 779 1289 b 692 1231 773 1246 741 1231 b 606 1289 644 1231 611 1246 l 361 1289 b 692 1063 365 1133 537 1063 b 1025 1289 848 1063 1020 1133 z m 1312 553 l 727 553 l 727 348 l 957 348 b 703 215 957 313 895 215 b 394 496 490 215 394 318 b 693 766 394 664 490 766 b 933 647 897 766 926 671 l 1308 647 b 692 1024 1294 871 1093 1024 b 43 496 294 1024 43 857 b 703 -33 43 135 294 -33 b 1087 107 857 -33 991 9 l 1087 0 l 1312 0 z "},"Ĝ":{"ha":1378,"x_min":0,"x_max":0,"o":"m 774 1080 l 1093 1080 l 910 1284 l 474 1284 l 292 1080 l 610 1080 l 688 1178 l 696 1178 z m 1312 553 l 727 553 l 727 348 l 957 348 b 703 215 957 313 895 215 b 394 496 490 215 394 318 b 693 766 394 664 490 766 b 933 647 897 766 926 671 l 1308 647 b 692 1024 1294 871 1093 1024 b 43 496 294 1024 43 857 b 703 -33 43 135 294 -33 b 1087 107 857 -33 991 9 l 1087 0 l 1312 0 z "},"Ģ":{"ha":1378,"x_min":0,"x_max":0,"o":"m 1312 553 l 727 553 l 727 348 l 957 348 b 703 215 957 313 895 215 b 394 496 490 215 394 318 b 693 766 394 664 490 766 b 933 647 897 766 926 671 l 1308 647 b 692 1024 1294 871 1093 1024 b 43 496 294 1024 43 857 b 703 -33 43 135 294 -33 b 1087 107 857 -33 991 9 l 1087 0 l 1312 0 z m 863 -85 l 543 -85 l 543 -257 l 684 -257 b 543 -326 684 -295 678 -326 l 543 -406 b 863 -214 841 -406 863 -349 z "},"Ġ":{"ha":1378,"x_min":0,"x_max":0,"o":"m 532 1081 l 852 1081 l 852 1253 l 532 1253 z m 1312 553 l 727 553 l 727 348 l 957 348 b 703 215 957 313 895 215 b 394 496 490 215 394 318 b 693 766 394 664 490 766 b 933 647 897 766 926 671 l 1308 647 b 692 1024 1294 871 1093 1024 b 43 496 294 1024 43 857 b 703 -33 43 135 294 -33 b 1087 107 857 -33 991 9 l 1087 0 l 1312 0 z "},"H":{"ha":1293,"x_min":0,"x_max":0,"o":"m 901 992 l 901 631 l 392 631 l 392 992 l 73 992 l 73 0 l 392 0 l 392 380 l 901 381 l 901 0 l 1220 0 l 1220 992 z "},"Ħ":{"ha":1344,"x_min":0,"x_max":0,"o":"m 1348 898 l 1246 898 l 1246 992 l 926 992 l 926 898 l 418 898 l 418 992 l 99 992 l 99 898 l -3 898 l -3 722 l 99 722 l 99 0 l 418 0 l 418 380 l 926 380 l 926 0 l 1246 0 l 1246 722 l 1348 722 z m 926 631 l 418 631 l 418 722 l 926 722 z "},"Ĥ":{"ha":1293,"x_min":0,"x_max":0,"o":"m 729 1080 l 1047 1080 l 865 1284 l 429 1284 l 247 1080 l 565 1080 l 643 1178 l 651 1178 z m 901 992 l 901 631 l 392 631 l 392 992 l 73 992 l 73 0 l 392 0 l 392 380 l 901 381 l 901 0 l 1220 0 l 1220 992 z "},"I":{"ha":465,"x_min":0,"x_max":0,"o":"m 392 0 l 392 992 l 73 992 l 73 0 z "},"Ĳ":{"ha":1643,"x_min":0,"x_max":0,"o":"m 392 0 l 392 992 l 73 992 l 73 0 z m 1571 992 l 1251 992 l 1251 431 b 1030 227 1251 272 1155 227 b 814 431 904 227 814 272 l 814 500 l 495 500 l 495 436 b 1030 -31 495 63 705 -31 b 1571 436 1353 -31 1571 63 z "},"Í":{"ha":714,"x_min":0,"x_max":0,"o":"m 640 1285 l 218 1285 l 107 1080 l 375 1080 z m 392 0 l 392 992 l 73 992 l 73 0 z "},"Ĭ":{"ha":810,"x_min":0,"x_max":0,"o":"m 737 1289 l 491 1289 b 404 1231 485 1246 453 1231 b 318 1289 356 1231 324 1246 l 73 1289 b 404 1063 77 1133 249 1063 b 737 1289 560 1063 732 1133 z m 564 0 l 564 992 l 245 992 l 245 0 z "},"Î":{"ha":947,"x_min":0,"x_max":0,"o":"m 555 1080 l 874 1080 l 691 1284 l 255 1284 l 73 1080 l 391 1080 l 469 1178 l 477 1178 z m 633 0 l 633 992 l 314 992 l 314 0 z "},"Ï":{"ha":844,"x_min":0,"x_max":0,"o":"m 73 1081 l 361 1081 l 361 1253 l 73 1253 z m 484 1081 l 772 1081 l 772 1253 l 484 1253 z m 582 0 l 582 992 l 263 992 l 263 0 z "},"İ":{"ha":465,"x_min":0,"x_max":0,"o":"m 73 1081 l 392 1081 l 392 1253 l 73 1253 z m 392 0 l 392 992 l 73 992 l 73 0 z "},"Ì":{"ha":700,"x_min":0,"x_max":0,"o":"m 73 1285 l 338 1080 l 606 1080 l 495 1285 z m 628 0 l 628 992 l 308 992 l 308 0 z "},"Ī":{"ha":811,"x_min":0,"x_max":0,"o":"m 738 1083 l 738 1253 l 73 1253 l 73 1083 z m 565 0 l 565 992 l 246 992 l 246 0 z "},"Į":{"ha":567,"x_min":0,"x_max":0,"o":"m 494 0 l 494 992 l 174 992 l 174 0 l 247 0 b 73 -180 149 -36 73 -106 b 350 -335 73 -276 162 -335 b 494 -322 411 -335 452 -332 l 494 -172 b 411 -183 475 -176 451 -183 b 338 -131 372 -183 338 -169 b 494 0 338 -88 396 -31 z "},"Ĩ":{"ha":882,"x_min":0,"x_max":0,"o":"m 589 1055 b 808 1288 686 1055 808 1126 l 604 1288 b 558 1239 602 1253 595 1239 b 290 1303 503 1239 383 1303 b 73 1070 192 1303 73 1232 l 277 1070 b 323 1119 280 1105 287 1119 b 589 1055 379 1119 497 1055 z m 601 0 l 601 992 l 282 992 l 282 0 z "},"J":{"ha":1178,"x_min":0,"x_max":0,"o":"m 1105 992 l 786 992 l 786 431 b 564 227 786 272 689 227 b 349 431 439 227 349 272 l 349 500 l 30 500 l 30 436 b 564 -31 30 63 240 -31 b 1105 436 887 -31 1105 63 z "},"Ĵ":{"ha":1419,"x_min":0,"x_max":0,"o":"m 1028 1080 l 1346 1080 l 1164 1284 l 728 1284 l 545 1080 l 864 1080 l 941 1178 l 950 1178 z m 1105 992 l 786 992 l 786 431 b 564 227 786 272 689 227 b 349 431 439 227 349 272 l 349 500 l 30 500 l 30 436 b 564 -31 30 63 240 -31 b 1105 436 887 -31 1105 63 z "},"K":{"ha":1274,"x_min":0,"x_max":0,"o":"m 819 641 l 1213 992 l 821 992 l 392 594 l 392 992 l 73 992 l 73 0 l 392 0 l 392 264 l 588 437 l 890 0 l 1277 0 z "},"Ķ":{"ha":1274,"x_min":0,"x_max":0,"o":"m 819 641 l 1213 992 l 821 992 l 392 594 l 392 992 l 73 992 l 73 0 l 392 0 l 392 264 l 588 437 l 890 0 l 1277 0 z m 802 -85 l 482 -85 l 482 -257 l 623 -257 b 482 -326 623 -295 617 -326 l 482 -406 b 802 -214 780 -406 802 -349 z "},"L":{"ha":1108,"x_min":0,"x_max":0,"o":"m 1070 0 l 1070 250 l 392 250 l 392 992 l 73 992 l 73 0 z "},"Ĺ":{"ha":1108,"x_min":0,"x_max":0,"o":"m 640 1285 l 218 1285 l 107 1080 l 375 1080 z m 1070 0 l 1070 250 l 392 250 l 392 992 l 73 992 l 73 0 z "},"Ľ":{"ha":1108,"x_min":0,"x_max":0,"o":"m 897 1006 l 584 1006 l 584 764 l 726 764 b 584 621 726 690 693 621 l 584 523 b 897 827 803 523 897 605 z m 1070 0 l 1070 250 l 392 250 l 392 992 l 73 992 l 73 0 z "},"Ļ":{"ha":1108,"x_min":0,"x_max":0,"o":"m 1070 0 l 1070 250 l 392 250 l 392 992 l 73 992 l 73 0 z m 732 -85 l 413 -85 l 413 -257 l 553 -257 b 413 -326 553 -295 547 -326 l 413 -406 b 732 -214 710 -406 732 -349 z "},"Ŀ":{"ha":1108,"x_min":0,"x_max":0,"o":"m 1070 0 l 1070 249 l 394 249 l 394 992 l 73 992 l 73 0 z m 755 381 b 928 555 851 381 928 458 b 755 729 928 652 851 729 b 581 555 658 729 581 652 b 755 381 581 458 658 381 z "},"Ł":{"ha":1115,"x_min":0,"x_max":0,"o":"m 400 250 l 400 393 l 803 556 l 803 788 l 400 625 l 400 992 l 81 992 l 81 496 l 16 470 l 16 238 l 81 264 l 81 0 l 1078 0 l 1078 250 z "},"M":{"ha":1553,"x_min":0,"x_max":0,"o":"m 1480 992 l 964 992 l 776 412 l 768 412 l 578 992 l 73 992 l 73 0 l 377 0 l 377 701 l 385 701 l 645 0 l 897 0 l 1152 691 l 1161 691 l 1161 0 l 1480 0 z "},"N":{"ha":1293,"x_min":0,"x_max":0,"o":"m 916 992 l 916 394 l 907 394 l 450 992 l 73 992 l 73 0 l 377 0 l 377 610 l 385 610 l 853 0 l 1220 0 l 1220 992 z "},"Ń":{"ha":1293,"x_min":0,"x_max":0,"o":"m 1055 1285 l 633 1285 l 521 1080 l 789 1080 z m 916 992 l 916 394 l 907 394 l 450 992 l 73 992 l 73 0 l 377 0 l 377 610 l 385 610 l 853 0 l 1220 0 l 1220 992 z "},"Ň":{"ha":1293,"x_min":0,"x_max":0,"o":"m 729 1285 l 651 1187 l 643 1187 l 565 1285 l 247 1285 l 429 1081 l 865 1081 l 1047 1285 z m 916 992 l 916 394 l 907 394 l 450 992 l 73 992 l 73 0 l 377 0 l 377 610 l 385 610 l 853 0 l 1220 0 l 1220 992 z "},"Ņ":{"ha":1293,"x_min":0,"x_max":0,"o":"m 916 992 l 916 394 l 907 394 l 450 992 l 73 992 l 73 0 l 377 0 l 377 610 l 385 610 l 853 0 l 1220 0 l 1220 992 z m 807 -85 l 487 -85 l 487 -257 l 628 -257 b 487 -326 628 -295 622 -326 l 487 -406 b 807 -214 785 -406 807 -349 z "},"Ŋ":{"ha":1293,"x_min":0,"x_max":0,"o":"m 916 992 l 916 448 l 907 448 l 450 992 l 73 992 l 73 0 l 377 0 l 377 616 l 385 616 l 913 -11 b 805 -63 905 -42 872 -63 b 695 6 726 -63 695 -33 l 695 26 l 406 26 b 404 1 404 16 404 10 b 812 -274 404 -172 527 -274 b 1220 7 1103 -274 1220 -176 l 1220 992 z "},"Ñ":{"ha":1293,"x_min":0,"x_max":0,"o":"m 795 1055 b 1014 1288 892 1055 1014 1126 l 810 1288 b 764 1239 807 1253 800 1239 b 495 1303 708 1239 589 1303 b 279 1070 398 1303 279 1232 l 483 1070 b 528 1119 485 1105 492 1119 b 795 1055 584 1119 703 1055 z m 916 992 l 916 394 l 907 394 l 450 992 l 73 992 l 73 0 l 377 0 l 377 610 l 385 610 l 853 0 l 1220 0 l 1220 992 z "},"O":{"ha":1390,"x_min":0,"x_max":0,"o":"m 695 1024 b 43 496 294 1024 43 857 b 695 -33 43 135 294 -33 b 1348 496 1096 -33 1348 135 b 695 1024 1348 857 1096 1024 z m 695 226 b 394 496 490 226 394 328 b 695 766 394 664 490 766 b 997 496 900 766 997 664 b 695 226 997 328 900 226 z "},"Ó":{"ha":1390,"x_min":0,"x_max":0,"o":"m 1103 1285 l 681 1285 l 569 1080 l 838 1080 z m 695 1024 b 43 496 294 1024 43 857 b 695 -33 43 135 294 -33 b 1348 496 1096 -33 1348 135 b 695 1024 1348 857 1096 1024 z m 695 226 b 394 496 490 226 394 328 b 695 766 394 664 490 766 b 997 496 900 766 997 664 b 695 226 997 328 900 226 z "},"Ŏ":{"ha":1390,"x_min":0,"x_max":0,"o":"m 1028 1289 l 782 1289 b 695 1231 776 1246 744 1231 b 609 1289 647 1231 614 1246 l 364 1289 b 695 1063 368 1133 540 1063 b 1028 1289 851 1063 1023 1133 z m 695 1024 b 43 496 294 1024 43 857 b 695 -33 43 135 294 -33 b 1348 496 1096 -33 1348 135 b 695 1024 1348 857 1096 1024 z m 695 226 b 394 496 490 226 394 328 b 695 766 394 664 490 766 b 997 496 900 766 997 664 b 695 226 997 328 900 226 z "},"Ô":{"ha":1390,"x_min":0,"x_max":0,"o":"m 777 1080 l 1095 1080 l 913 1284 l 477 1284 l 295 1080 l 613 1080 l 691 1178 l 699 1178 z m 695 1024 b 43 496 294 1024 43 857 b 695 -33 43 135 294 -33 b 1348 496 1096 -33 1348 135 b 695 1024 1348 857 1096 1024 z m 695 226 b 394 496 490 226 394 328 b 695 766 394 664 490 766 b 997 496 900 766 997 664 b 695 226 997 328 900 226 z "},"Ö":{"ha":1390,"x_min":0,"x_max":0,"o":"m 346 1081 l 634 1081 l 634 1253 l 346 1253 z m 756 1081 l 1045 1081 l 1045 1253 l 756 1253 z m 695 1024 b 43 496 294 1024 43 857 b 695 -33 43 135 294 -33 b 1348 496 1096 -33 1348 135 b 695 1024 1348 857 1096 1024 z m 695 226 b 394 496 490 226 394 328 b 695 766 394 664 490 766 b 997 496 900 766 997 664 b 695 226 997 328 900 226 z "},"Ò":{"ha":1390,"x_min":0,"x_max":0,"o":"m 300 1285 l 565 1080 l 833 1080 l 722 1285 z m 695 1024 b 43 496 294 1024 43 857 b 695 -33 43 135 294 -33 b 1348 496 1096 -33 1348 135 b 695 1024 1348 857 1096 1024 z m 695 226 b 394 496 490 226 394 328 b 695 766 394 664 490 766 b 997 496 900 766 997 664 b 695 226 997 328 900 226 z "},"Ő":{"ha":1390,"x_min":0,"x_max":0,"o":"m 800 1285 l 470 1285 l 368 1079 l 619 1079 z m 1202 1285 l 873 1285 l 770 1079 l 1021 1079 z m 695 1024 b 43 496 294 1024 43 857 b 695 -33 43 135 294 -33 b 1348 496 1096 -33 1348 135 b 695 1024 1348 857 1096 1024 z m 695 226 b 394 496 490 226 394 328 b 695 766 394 664 490 766 b 997 496 900 766 997 664 b 695 226 997 328 900 226 z "},"Ō":{"ha":1390,"x_min":0,"x_max":0,"o":"m 1028 1083 l 1028 1253 l 363 1253 l 363 1083 z m 695 1024 b 43 496 294 1024 43 857 b 695 -33 43 135 294 -33 b 1348 496 1096 -33 1348 135 b 695 1024 1348 857 1096 1024 z m 695 226 b 394 496 490 226 394 328 b 695 766 394 664 490 766 b 997 496 900 766 997 664 b 695 226 997 328 900 226 z "},"Ø":{"ha":1390,"x_min":0,"x_max":0,"o":"m 1215 858 l 1340 966 l 1230 1047 l 1105 939 b 695 1024 998 996 859 1024 b 43 496 294 1024 43 857 b 176 134 43 340 90 220 l 51 26 l 160 -56 l 285 53 b 695 -33 392 -5 531 -33 b 1348 496 1096 -33 1348 135 b 1215 858 1348 652 1301 772 z m 394 496 b 695 766 394 664 490 766 b 866 732 765 766 821 754 l 426 351 b 394 496 405 391 394 440 z m 695 226 b 524 259 626 226 569 237 l 964 640 b 997 496 986 600 997 552 b 695 226 997 328 900 226 z "},"Ǿ":{"ha":1390,"x_min":0,"x_max":0,"o":"m 1180 1285 l 678 1285 l 546 1080 l 864 1080 z m 1215 858 l 1340 966 l 1230 1047 l 1105 939 b 695 1024 998 996 859 1024 b 43 496 294 1024 43 857 b 176 134 43 340 90 220 l 51 26 l 160 -56 l 285 53 b 695 -33 392 -5 531 -33 b 1348 496 1096 -33 1348 135 b 1215 858 1348 652 1301 772 z m 394 496 b 695 766 394 664 490 766 b 866 732 765 766 821 754 l 426 351 b 394 496 405 391 394 440 z m 695 226 b 524 259 626 226 569 237 l 964 640 b 997 496 986 600 997 552 b 695 226 997 328 900 226 z "},"Õ":{"ha":1390,"x_min":0,"x_max":0,"o":"m 843 1055 b 1062 1288 940 1055 1062 1126 l 858 1288 b 812 1239 855 1253 848 1239 b 543 1303 756 1239 637 1303 b 327 1070 446 1303 327 1232 l 531 1070 b 577 1119 533 1105 540 1119 b 843 1055 632 1119 751 1055 z m 695 1024 b 43 496 294 1024 43 857 b 695 -33 43 135 294 -33 b 1348 496 1096 -33 1348 135 b 695 1024 1348 857 1096 1024 z m 695 226 b 394 496 490 226 394 328 b 695 766 394 664 490 766 b 997 496 900 766 997 664 b 695 226 997 328 900 226 z "},"Œ":{"ha":1981,"x_min":0,"x_max":0,"o":"m 1302 236 l 1302 394 l 1884 394 l 1884 614 l 1302 614 l 1302 753 l 1913 753 l 1913 992 l 997 992 l 997 899 l 988 899 b 627 1024 918 978 788 1024 b 43 496 294 1024 43 857 b 627 -33 43 135 294 -33 b 988 93 788 -33 918 14 l 997 93 l 997 0 l 1927 0 l 1927 236 z m 695 230 b 394 496 506 230 394 325 b 695 761 394 668 506 761 b 997 496 884 761 997 668 b 695 230 997 325 884 230 z "},"P":{"ha":1225,"x_min":0,"x_max":0,"o":"m 807 992 l 73 992 l 73 0 l 392 0 l 392 319 l 807 319 b 1198 655 1090 319 1198 432 b 807 992 1198 879 1091 992 z m 729 545 l 392 545 l 392 748 l 729 748 b 847 646 814 748 847 714 b 729 545 847 579 814 545 z "},"Þ":{"ha":1244,"x_min":0,"x_max":0,"o":"m 807 862 l 392 862 l 392 992 l 73 992 l 73 0 l 392 0 l 392 190 l 807 190 b 1198 525 1090 190 1198 302 b 807 862 1198 749 1091 862 z m 729 415 l 392 415 l 392 618 l 729 618 b 847 516 814 618 847 584 b 729 415 847 449 814 415 z "},"Q":{"ha":1390,"x_min":0,"x_max":0,"o":"m 1348 496 b 695 1024 1348 857 1096 1024 b 43 496 294 1024 43 857 b 695 -33 43 135 294 -33 b 882 -19 762 -33 824 -28 l 960 -150 l 1152 -71 l 1084 42 b 1348 496 1252 124 1348 273 z m 848 436 l 657 357 l 735 227 b 695 226 722 226 709 226 b 394 496 490 226 394 328 b 695 766 394 664 490 766 b 997 496 900 766 997 664 b 928 303 997 415 974 349 z "},"R":{"ha":1264,"x_min":0,"x_max":0,"o":"m 1008 376 l 1008 388 b 1221 666 1135 420 1221 489 b 830 992 1221 878 1114 992 l 73 992 l 73 0 l 392 0 l 392 319 l 693 319 l 883 0 l 1247 0 z m 755 545 l 392 545 l 392 737 l 755 737 b 865 641 834 737 865 704 b 755 545 865 578 833 545 z "},"Ŕ":{"ha":1264,"x_min":0,"x_max":0,"o":"m 1034 1284 l 612 1284 l 501 1078 l 769 1078 z m 1008 376 l 1008 388 b 1221 666 1135 420 1221 489 b 830 992 1221 878 1114 992 l 73 992 l 73 0 l 392 0 l 392 319 l 693 319 l 883 0 l 1247 0 z m 755 545 l 392 545 l 392 737 l 755 737 b 865 641 834 737 865 704 b 755 545 865 578 833 545 z "},"Ř":{"ha":1264,"x_min":0,"x_max":0,"o":"m 708 1284 l 630 1185 l 622 1185 l 544 1284 l 226 1284 l 408 1080 l 844 1080 l 1027 1284 z m 1008 376 l 1008 388 b 1221 666 1135 420 1221 489 b 830 992 1221 878 1114 992 l 73 992 l 73 0 l 392 0 l 392 319 l 693 319 l 883 0 l 1247 0 z m 755 545 l 392 545 l 392 737 l 755 737 b 865 641 834 737 865 704 b 755 545 865 578 833 545 z "},"Ŗ":{"ha":1264,"x_min":0,"x_max":0,"o":"m 1008 376 l 1008 388 b 1221 666 1135 420 1221 489 b 830 992 1221 878 1114 992 l 73 992 l 73 0 l 392 0 l 392 319 l 693 319 l 883 0 l 1247 0 z m 755 545 l 392 545 l 392 737 l 755 737 b 865 641 834 737 865 704 b 755 545 865 578 833 545 z m 797 -85 l 478 -85 l 478 -257 l 619 -257 b 478 -326 619 -295 612 -326 l 478 -406 b 797 -214 776 -406 797 -349 z "},"S":{"ha":1243,"x_min":0,"x_max":0,"o":"m 806 694 l 1171 694 b 603 1024 1160 958 923 1024 b 44 704 280 1024 44 956 b 383 408 44 512 170 434 l 693 369 b 827 280 774 359 827 338 b 619 192 827 221 763 192 b 386 330 485 192 395 213 l 20 330 b 606 -33 32 32 255 -33 b 1206 303 976 -33 1206 27 b 870 609 1206 495 1087 584 l 525 648 b 411 723 449 656 411 675 b 592 806 411 772 460 806 b 806 694 718 806 799 777 z "},"Ś":{"ha":1243,"x_min":0,"x_max":0,"o":"m 1010 1285 l 589 1285 l 477 1080 l 745 1080 z m 806 694 l 1171 694 b 603 1024 1160 958 923 1024 b 44 704 280 1024 44 956 b 383 408 44 512 170 434 l 693 369 b 827 280 774 359 827 338 b 619 192 827 221 763 192 b 386 330 485 192 395 213 l 20 330 b 606 -33 32 32 255 -33 b 1206 303 976 -33 1206 27 b 870 609 1206 495 1087 584 l 525 648 b 411 723 449 656 411 675 b 592 806 411 772 460 806 b 806 694 718 806 799 777 z "},"Š":{"ha":1243,"x_min":0,"x_max":0,"o":"m 685 1285 l 607 1187 l 599 1187 l 521 1285 l 202 1285 l 385 1081 l 821 1081 l 1003 1285 z m 806 694 l 1171 694 b 603 1024 1160 958 923 1024 b 44 704 280 1024 44 956 b 383 408 44 512 170 434 l 693 369 b 827 280 774 359 827 338 b 619 192 827 221 763 192 b 386 330 485 192 395 213 l 20 330 b 606 -33 32 32 255 -33 b 1206 303 976 -33 1206 27 b 870 609 1206 495 1087 584 l 525 648 b 411 723 449 656 411 675 b 592 806 411 772 460 806 b 806 694 718 806 799 777 z "},"Ş":{"ha":1260,"x_min":0,"x_max":0,"o":"m 1206 303 b 870 609 1206 495 1087 584 l 525 648 b 411 723 449 656 411 675 b 592 806 411 772 460 806 b 806 694 718 806 799 777 l 1171 694 b 603 1024 1160 958 923 1024 b 44 704 280 1024 44 956 b 383 408 44 512 170 434 l 693 369 b 827 280 774 359 827 338 b 619 192 827 221 763 192 b 386 330 485 192 395 213 l 20 330 b 542 -31 31 51 227 -23 l 482 -106 l 482 -176 l 491 -176 b 605 -165 519 -169 577 -165 b 687 -204 655 -165 687 -173 b 605 -244 687 -235 655 -244 b 416 -214 530 -244 494 -238 l 407 -214 l 407 -328 b 616 -353 485 -350 551 -353 b 903 -203 820 -353 903 -314 b 688 -66 903 -103 835 -66 b 653 -69 677 -66 660 -68 l 683 -31 b 1206 303 1008 -23 1206 46 z "},"Ŝ":{"ha":1243,"x_min":0,"x_max":0,"o":"m 685 1080 l 1003 1080 l 821 1284 l 385 1284 l 202 1080 l 521 1080 l 599 1178 l 607 1178 z m 806 694 l 1171 694 b 603 1024 1160 958 923 1024 b 44 704 280 1024 44 956 b 383 408 44 512 170 434 l 693 369 b 827 280 774 359 827 338 b 619 192 827 221 763 192 b 386 330 485 192 395 213 l 20 330 b 606 -33 32 32 255 -33 b 1206 303 976 -33 1206 27 b 870 609 1206 495 1087 584 l 525 648 b 411 723 449 656 411 675 b 592 806 411 772 460 806 b 806 694 718 806 799 777 z "},"Ș":{"ha":1243,"x_min":0,"x_max":0,"o":"m 806 694 l 1171 694 b 603 1024 1160 958 923 1024 b 44 704 280 1024 44 956 b 383 408 44 512 170 434 l 693 369 b 827 280 774 359 827 338 b 619 192 827 221 763 192 b 386 330 485 192 395 213 l 20 330 b 606 -33 32 32 255 -33 b 1206 303 976 -33 1206 27 b 870 609 1206 495 1087 584 l 525 648 b 411 723 449 656 411 675 b 592 806 411 772 460 806 b 806 694 718 806 799 777 z m 766 -85 l 447 -85 l 447 -257 l 588 -257 b 447 -326 588 -295 581 -326 l 447 -406 b 766 -214 744 -406 766 -349 z "},"T":{"ha":1126,"x_min":0,"x_max":0,"o":"m 1098 992 l 28 992 l 28 738 l 404 738 l 404 0 l 723 0 l 723 738 l 1098 738 z "},"Ŧ":{"ha":1126,"x_min":0,"x_max":0,"o":"m 1098 738 l 1098 992 l 28 992 l 28 738 l 404 738 l 404 527 l 210 527 l 210 318 l 404 318 l 404 0 l 723 0 l 723 318 l 917 318 l 917 527 l 723 527 l 723 738 z "},"Ť":{"ha":1126,"x_min":0,"x_max":0,"o":"m 645 1285 l 568 1187 l 559 1187 l 481 1285 l 163 1285 l 345 1081 l 781 1081 l 964 1285 z m 1098 992 l 28 992 l 28 738 l 404 738 l 404 0 l 723 0 l 723 738 l 1098 738 z "},"Ţ":{"ha":1126,"x_min":0,"x_max":0,"o":"m 723 0 l 723 738 l 1098 738 l 1098 992 l 28 992 l 28 738 l 404 738 l 404 0 l 507 0 l 420 -106 l 420 -176 l 428 -176 b 543 -165 456 -169 515 -165 b 624 -204 593 -165 624 -173 b 543 -244 624 -235 593 -244 b 353 -214 468 -244 432 -238 l 345 -214 l 345 -328 b 554 -353 423 -350 488 -353 b 840 -203 757 -353 840 -314 b 626 -66 840 -103 773 -66 b 591 -69 615 -66 598 -68 l 647 0 z "},"Ț":{"ha":1126,"x_min":0,"x_max":0,"o":"m 1098 992 l 28 992 l 28 738 l 404 738 l 404 0 l 723 0 l 723 738 l 1098 738 z m 723 -85 l 404 -85 l 404 -257 l 544 -257 b 404 -326 544 -295 538 -326 l 404 -406 b 723 -214 701 -406 723 -349 z "},"U":{"ha":1286,"x_min":0,"x_max":0,"o":"m 893 992 l 893 431 b 643 226 893 268 795 226 b 392 431 490 226 392 268 l 392 992 l 73 992 l 73 431 b 643 -31 73 65 297 -31 b 1213 431 989 -31 1213 65 l 1213 992 z "},"Ú":{"ha":1286,"x_min":0,"x_max":0,"o":"m 1051 1285 l 629 1285 l 517 1080 l 785 1080 z m 893 992 l 893 431 b 643 226 893 268 795 226 b 392 431 490 226 392 268 l 392 992 l 73 992 l 73 431 b 643 -31 73 65 297 -31 b 1213 431 989 -31 1213 65 l 1213 992 z "},"Ŭ":{"ha":1286,"x_min":0,"x_max":0,"o":"m 976 1289 l 729 1289 b 643 1231 724 1246 691 1231 b 556 1289 594 1231 562 1246 l 311 1289 b 643 1063 316 1133 487 1063 b 976 1289 798 1063 971 1133 z m 893 992 l 893 431 b 643 226 893 268 795 226 b 392 431 490 226 392 268 l 392 992 l 73 992 l 73 431 b 643 -31 73 65 297 -31 b 1213 431 989 -31 1213 65 l 1213 992 z "},"Û":{"ha":1286,"x_min":0,"x_max":0,"o":"m 725 1080 l 1043 1080 l 861 1284 l 425 1284 l 243 1080 l 561 1080 l 639 1178 l 647 1178 z m 893 992 l 893 431 b 643 226 893 268 795 226 b 392 431 490 226 392 268 l 392 992 l 73 992 l 73 431 b 643 -31 73 65 297 -31 b 1213 431 989 -31 1213 65 l 1213 992 z "},"Ü":{"ha":1286,"x_min":0,"x_max":0,"o":"m 293 1081 l 582 1081 l 582 1253 l 293 1253 z m 704 1081 l 992 1081 l 992 1253 l 704 1253 z m 893 992 l 893 431 b 643 226 893 268 795 226 b 392 431 490 226 392 268 l 392 992 l 73 992 l 73 431 b 643 -31 73 65 297 -31 b 1213 431 989 -31 1213 65 l 1213 992 z "},"Ù":{"ha":1286,"x_min":0,"x_max":0,"o":"m 248 1285 l 513 1080 l 781 1080 l 670 1285 z m 893 992 l 893 431 b 643 226 893 268 795 226 b 392 431 490 226 392 268 l 392 992 l 73 992 l 73 431 b 643 -31 73 65 297 -31 b 1213 431 989 -31 1213 65 l 1213 992 z "},"Ű":{"ha":1286,"x_min":0,"x_max":0,"o":"m 748 1285 l 418 1285 l 315 1079 l 567 1079 z m 1150 1285 l 820 1285 l 718 1079 l 969 1079 z m 893 992 l 893 431 b 643 226 893 268 795 226 b 392 431 490 226 392 268 l 392 992 l 73 992 l 73 431 b 643 -31 73 65 297 -31 b 1213 431 989 -31 1213 65 l 1213 992 z "},"Ū":{"ha":1286,"x_min":0,"x_max":0,"o":"m 976 1083 l 976 1253 l 310 1253 l 310 1083 z m 893 992 l 893 431 b 643 226 893 268 795 226 b 392 431 490 226 392 268 l 392 992 l 73 992 l 73 431 b 643 -31 73 65 297 -31 b 1213 431 989 -31 1213 65 l 1213 992 z "},"Ų":{"ha":1286,"x_min":0,"x_max":0,"o":"m 893 992 l 893 431 b 643 226 893 268 795 226 b 392 431 490 226 392 268 l 392 992 l 73 992 l 73 431 b 608 -31 73 77 282 -24 b 500 -180 544 -70 500 -123 b 777 -335 500 -276 588 -335 b 921 -322 837 -335 879 -332 l 921 -172 b 838 -183 901 -176 877 -183 b 765 -131 799 -183 765 -169 b 918 -1 765 -88 822 -33 b 1213 431 1102 51 1213 173 l 1213 992 z "},"Ů":{"ha":1286,"x_min":0,"x_max":0,"o":"m 644 1030 b 887 1221 779 1030 887 1103 b 644 1412 887 1339 779 1412 b 402 1221 509 1412 402 1339 b 644 1030 402 1103 509 1030 z m 644 1155 b 566 1221 602 1155 566 1180 b 644 1287 566 1262 602 1287 b 722 1221 687 1287 722 1262 b 644 1155 722 1180 687 1155 z m 893 992 l 893 431 b 643 226 893 268 795 226 b 392 431 490 226 392 268 l 392 992 l 73 992 l 73 431 b 643 -31 73 65 297 -31 b 1213 431 989 -31 1213 65 l 1213 992 z "},"Ũ":{"ha":1286,"x_min":0,"x_max":0,"o":"m 791 1055 b 1010 1288 888 1055 1010 1126 l 805 1288 b 760 1239 803 1253 796 1239 b 491 1303 704 1239 585 1303 b 274 1070 394 1303 274 1232 l 479 1070 b 524 1119 481 1105 488 1119 b 791 1055 580 1119 698 1055 z m 893 992 l 893 431 b 643 226 893 268 795 226 b 392 431 490 226 392 268 l 392 992 l 73 992 l 73 431 b 643 -31 73 65 297 -31 b 1213 431 989 -31 1213 65 l 1213 992 z "},"V":{"ha":1249,"x_min":0,"x_max":0,"o":"m 362 992 l -10 992 l 437 0 l 812 0 l 1259 992 l 887 992 l 628 348 l 620 348 z "},"W":{"ha":1657,"x_min":0,"x_max":0,"o":"m 1372 0 l 1663 992 l 1313 992 l 1163 373 l 1155 373 l 1006 992 l 651 992 l 503 373 l 494 373 l 346 992 l -7 992 l 280 0 l 679 0 l 825 608 l 833 608 l 980 0 z "},"Ẃ":{"ha":1657,"x_min":0,"x_max":0,"o":"m 1237 1285 l 815 1285 l 704 1080 l 972 1080 z m 1372 0 l 1663 992 l 1313 992 l 1163 373 l 1155 373 l 1006 992 l 651 992 l 503 373 l 494 373 l 346 992 l -7 992 l 280 0 l 679 0 l 825 608 l 833 608 l 980 0 z "},"Ŵ":{"ha":1657,"x_min":0,"x_max":0,"o":"m 911 1080 l 1230 1080 l 1047 1284 l 611 1284 l 429 1080 l 747 1080 l 825 1178 l 833 1178 z m 1372 0 l 1663 992 l 1313 992 l 1163 373 l 1155 373 l 1006 992 l 651 992 l 503 373 l 494 373 l 346 992 l -7 992 l 280 0 l 679 0 l 825 608 l 833 608 l 980 0 z "},"Ẅ":{"ha":1657,"x_min":0,"x_max":0,"o":"m 480 1081 l 768 1081 l 768 1253 l 480 1253 z m 891 1081 l 1179 1081 l 1179 1253 l 891 1253 z m 1372 0 l 1663 992 l 1313 992 l 1163 373 l 1155 373 l 1006 992 l 651 992 l 503 373 l 494 373 l 346 992 l -7 992 l 280 0 l 679 0 l 825 608 l 833 608 l 980 0 z "},"Ẁ":{"ha":1657,"x_min":0,"x_max":0,"o":"m 434 1285 l 700 1080 l 968 1080 l 856 1285 z m 1372 0 l 1663 992 l 1313 992 l 1163 373 l 1155 373 l 1006 992 l 651 992 l 503 373 l 494 373 l 346 992 l -7 992 l 280 0 l 679 0 l 825 608 l 833 608 l 980 0 z "},"X":{"ha":1263,"x_min":0,"x_max":0,"o":"m 835 525 l 1218 992 l 816 992 l 633 728 l 446 992 l 45 992 l 428 525 l -9 0 l 402 0 l 631 303 l 861 0 l 1272 0 z "},"Y":{"ha":1235,"x_min":0,"x_max":0,"o":"m 1248 992 l 870 992 l 618 603 l 365 992 l -13 992 l 457 331 l 457 0 l 778 0 l 778 331 z "},"Ý":{"ha":1235,"x_min":0,"x_max":0,"o":"m 1025 1285 l 603 1285 l 492 1080 l 760 1080 z m 1248 992 l 870 992 l 618 603 l 365 992 l -13 992 l 457 331 l 457 0 l 778 0 l 778 331 z "},"Ŷ":{"ha":1235,"x_min":0,"x_max":0,"o":"m 700 1080 l 1018 1080 l 836 1284 l 400 1284 l 217 1080 l 536 1080 l 614 1178 l 622 1178 z m 1248 992 l 870 992 l 618 603 l 365 992 l -13 992 l 457 331 l 457 0 l 778 0 l 778 331 z "},"Ÿ":{"ha":1235,"x_min":0,"x_max":0,"o":"m 268 1081 l 556 1081 l 556 1253 l 268 1253 z m 679 1081 l 967 1081 l 967 1253 l 679 1253 z m 1248 992 l 870 992 l 618 603 l 365 992 l -13 992 l 457 331 l 457 0 l 778 0 l 778 331 z "},"Ỳ":{"ha":1235,"x_min":0,"x_max":0,"o":"m 223 1285 l 488 1080 l 756 1080 l 645 1285 z m 1248 992 l 870 992 l 618 603 l 365 992 l -13 992 l 457 331 l 457 0 l 778 0 l 778 331 z "},"Z":{"ha":1160,"x_min":0,"x_max":0,"o":"m 1108 739 l 1108 992 l 73 992 l 73 727 l 597 727 l 41 253 l 41 0 l 1108 0 l 1108 264 l 551 264 z "},"Ź":{"ha":1160,"x_min":0,"x_max":0,"o":"m 999 1285 l 577 1285 l 465 1080 l 733 1080 z m 1108 739 l 1108 992 l 73 992 l 73 727 l 597 727 l 41 253 l 41 0 l 1108 0 l 1108 264 l 551 264 z "},"Ž":{"ha":1160,"x_min":0,"x_max":0,"o":"m 673 1285 l 595 1187 l 587 1187 l 509 1285 l 191 1285 l 373 1081 l 809 1081 l 991 1285 z m 1108 739 l 1108 992 l 73 992 l 73 727 l 597 727 l 41 253 l 41 0 l 1108 0 l 1108 264 l 551 264 z "},"Ż":{"ha":1160,"x_min":0,"x_max":0,"o":"m 431 1081 l 751 1081 l 751 1253 l 431 1253 z m 1108 739 l 1108 992 l 73 992 l 73 727 l 597 727 l 41 253 l 41 0 l 1108 0 l 1108 264 l 551 264 z "},"a":{"ha":1083,"x_min":0,"x_max":0,"o":"m 1024 121 l 1024 541 b 556 781 1024 735 829 781 b 89 524 306 781 97 724 l 420 524 b 559 594 425 574 488 594 b 697 540 656 594 697 573 b 618 491 697 508 672 497 l 291 460 b 34 218 134 445 34 387 b 363 -31 34 40 201 -31 b 715 102 511 -31 642 13 l 715 74 b 737 0 715 42 724 13 l 1045 0 l 1045 8 b 1024 121 1025 33 1024 78 z m 710 325 b 473 150 710 197 570 150 b 360 221 406 150 360 168 b 452 300 360 270 394 290 l 634 329 b 710 349 660 333 693 338 z "},"á":{"ha":1108,"x_min":0,"x_max":0,"o":"m 949 1040 l 527 1040 l 416 834 l 684 834 z m 1024 121 l 1024 541 b 556 781 1024 735 829 781 b 89 524 306 781 97 724 l 420 524 b 559 594 425 574 488 594 b 697 540 656 594 697 573 b 618 491 697 508 672 497 l 291 460 b 34 218 134 445 34 387 b 363 -31 34 40 201 -31 b 715 102 511 -31 642 13 l 715 74 b 737 0 715 42 724 13 l 1045 0 l 1045 8 b 1024 121 1025 33 1024 78 z m 710 325 b 473 150 710 197 570 150 b 360 221 406 150 360 168 b 452 300 360 270 394 290 l 634 329 b 710 349 660 333 693 338 z "},"ă":{"ha":1108,"x_min":0,"x_max":0,"o":"m 887 1042 l 641 1042 b 554 984 635 999 603 984 b 468 1042 506 984 474 999 l 223 1042 b 554 816 227 886 399 816 b 887 1042 710 816 882 886 z m 1024 121 l 1024 541 b 556 781 1024 735 829 781 b 89 524 306 781 97 724 l 420 524 b 559 594 425 574 488 594 b 697 540 656 594 697 573 b 618 491 697 508 672 497 l 291 460 b 34 218 134 445 34 387 b 363 -31 34 40 201 -31 b 715 102 511 -31 642 13 l 715 74 b 737 0 715 42 724 13 l 1045 0 l 1045 8 b 1024 121 1025 33 1024 78 z m 710 325 b 473 150 710 197 570 150 b 360 221 406 150 360 168 b 452 300 360 270 394 290 l 634 329 b 710 349 660 333 693 338 z "},"â":{"ha":1108,"x_min":0,"x_max":0,"o":"m 638 834 l 956 834 l 774 1038 l 338 1038 l 155 834 l 474 834 l 551 933 l 560 933 z m 1024 121 l 1024 541 b 556 781 1024 735 829 781 b 89 524 306 781 97 724 l 420 524 b 559 594 425 574 488 594 b 697 540 656 594 697 573 b 618 491 697 508 672 497 l 291 460 b 34 218 134 445 34 387 b 363 -31 34 40 201 -31 b 715 102 511 -31 642 13 l 715 74 b 737 0 715 42 724 13 l 1045 0 l 1045 8 b 1024 121 1025 33 1024 78 z m 710 325 b 473 150 710 197 570 150 b 360 221 406 150 360 168 b 452 300 360 270 394 290 l 634 329 b 710 349 660 333 693 338 z "},"ä":{"ha":1108,"x_min":0,"x_max":0,"o":"m 206 839 l 494 839 l 494 1011 l 206 1011 z m 617 839 l 905 839 l 905 1011 l 617 1011 z m 1024 121 l 1024 541 b 556 781 1024 735 829 781 b 89 524 306 781 97 724 l 420 524 b 559 594 425 574 488 594 b 697 540 656 594 697 573 b 618 491 697 508 672 497 l 291 460 b 34 218 134 445 34 387 b 363 -31 34 40 201 -31 b 715 102 511 -31 642 13 l 715 74 b 737 0 715 42 724 13 l 1045 0 l 1045 8 b 1024 121 1025 33 1024 78 z m 710 325 b 473 150 710 197 570 150 b 360 221 406 150 360 168 b 452 300 360 270 394 290 l 634 329 b 710 349 660 333 693 338 z "},"à":{"ha":1108,"x_min":0,"x_max":0,"o":"m 161 1040 l 427 834 l 695 834 l 583 1040 z m 1024 121 l 1024 541 b 556 781 1024 735 829 781 b 89 524 306 781 97 724 l 420 524 b 559 594 425 574 488 594 b 697 540 656 594 697 573 b 618 491 697 508 672 497 l 291 460 b 34 218 134 445 34 387 b 363 -31 34 40 201 -31 b 715 102 511 -31 642 13 l 715 74 b 737 0 715 42 724 13 l 1045 0 l 1045 8 b 1024 121 1025 33 1024 78 z m 710 325 b 473 150 710 197 570 150 b 360 221 406 150 360 168 b 452 300 360 270 394 290 l 634 329 b 710 349 660 333 693 338 z "},"ā":{"ha":1108,"x_min":0,"x_max":0,"o":"m 888 849 l 888 1019 l 223 1019 l 223 849 z m 1024 121 l 1024 541 b 556 781 1024 735 829 781 b 89 524 306 781 97 724 l 420 524 b 559 594 425 574 488 594 b 697 540 656 594 697 573 b 618 491 697 508 672 497 l 291 460 b 34 218 134 445 34 387 b 363 -31 34 40 201 -31 b 715 102 511 -31 642 13 l 715 74 b 737 0 715 42 724 13 l 1045 0 l 1045 8 b 1024 121 1025 33 1024 78 z m 710 325 b 473 150 710 197 570 150 b 360 221 406 150 360 168 b 452 300 360 270 394 290 l 634 329 b 710 349 660 333 693 338 z "},"ą":{"ha":1083,"x_min":0,"x_max":0,"o":"m 1045 0 l 1045 8 b 1024 121 1025 33 1024 78 l 1024 541 b 556 781 1024 735 829 781 b 89 524 306 781 97 724 l 420 524 b 559 594 425 574 488 594 b 697 540 656 594 697 573 b 618 491 697 508 672 497 l 291 460 b 34 218 134 445 34 387 b 363 -31 34 40 201 -31 b 715 102 511 -31 642 13 l 715 74 b 737 0 715 42 724 13 l 799 0 b 626 -180 701 -36 626 -106 b 901 -335 626 -276 713 -335 b 1045 -322 962 -335 1004 -332 l 1045 -172 b 963 -183 1026 -176 1002 -183 b 890 -131 924 -183 890 -169 b 1045 0 890 -88 948 -31 z m 710 325 b 473 150 710 197 570 150 b 360 221 406 150 360 168 b 452 300 360 270 394 290 l 634 329 b 710 349 660 333 693 338 z "},"å":{"ha":1108,"x_min":0,"x_max":0,"o":"m 556 816 b 798 1007 690 816 798 888 b 556 1197 798 1125 690 1197 b 313 1007 421 1197 313 1125 b 556 816 313 888 421 816 z m 556 941 b 477 1007 513 941 477 966 b 556 1073 477 1048 513 1073 b 634 1007 598 1073 634 1048 b 556 941 634 966 598 941 z m 1024 121 l 1024 541 b 556 781 1024 735 829 781 b 89 524 306 781 97 724 l 420 524 b 559 594 425 574 488 594 b 697 540 656 594 697 573 b 618 491 697 508 672 497 l 291 460 b 34 218 134 445 34 387 b 363 -31 34 40 201 -31 b 715 102 511 -31 642 13 l 715 74 b 737 0 715 42 724 13 l 1045 0 l 1045 8 b 1024 121 1025 33 1024 78 z m 710 325 b 473 150 710 197 570 150 b 360 221 406 150 360 168 b 452 300 360 270 394 290 l 634 329 b 710 349 660 333 693 338 z "},"ã":{"ha":1108,"x_min":0,"x_max":0,"o":"m 705 809 b 924 1043 802 809 924 880 l 719 1043 b 674 994 717 1008 710 994 b 405 1058 618 994 499 1058 b 188 824 307 1058 188 987 l 393 824 b 438 874 395 859 402 874 b 705 809 494 874 612 809 z m 1024 121 l 1024 541 b 556 781 1024 735 829 781 b 89 524 306 781 97 724 l 420 524 b 559 594 425 574 488 594 b 697 540 656 594 697 573 b 618 491 697 508 672 497 l 291 460 b 34 218 134 445 34 387 b 363 -31 34 40 201 -31 b 715 102 511 -31 642 13 l 715 74 b 737 0 715 42 724 13 l 1045 0 l 1045 8 b 1024 121 1025 33 1024 78 z m 710 325 b 473 150 710 197 570 150 b 360 221 406 150 360 168 b 452 300 360 270 394 290 l 634 329 b 710 349 660 333 693 338 z "},"æ":{"ha":1746,"x_min":0,"x_max":0,"o":"m 1708 375 b 1196 781 1708 631 1547 781 b 884 699 1059 781 943 753 b 556 781 831 764 698 781 b 89 524 306 781 98 723 l 420 524 b 559 594 424 574 488 594 b 697 540 656 594 697 573 b 618 491 697 508 672 497 l 291 460 b 34 218 134 445 34 387 b 418 -31 34 40 201 -31 b 829 103 628 -31 749 12 b 1195 -31 885 16 1019 -31 b 1697 233 1594 -31 1690 105 l 1361 233 b 1195 162 1354 218 1326 162 b 1011 301 1082 162 1024 206 l 1704 301 b 1708 375 1706 323 1708 356 z m 1196 589 b 1374 480 1296 589 1353 554 l 1018 480 b 1196 589 1039 554 1096 589 z m 710 325 b 473 150 710 197 570 150 b 360 221 406 150 360 168 b 452 300 360 270 394 290 l 634 329 b 710 349 660 333 693 338 z "},"b":{"ha":1139,"x_min":0,"x_max":0,"o":"m 386 668 l 377 668 l 377 1006 l 64 1006 l 64 0 l 372 0 l 372 81 l 380 81 b 669 -31 447 10 543 -31 b 1101 369 932 -31 1101 109 b 669 770 1101 630 932 770 b 386 668 543 770 451 730 z m 575 191 b 367 369 435 191 367 261 b 575 548 367 478 435 548 b 775 369 710 548 775 483 b 575 191 775 256 710 191 z "},"c":{"ha":1125,"x_min":0,"x_max":0,"o":"m 556 191 b 364 375 427 191 364 262 b 556 560 364 489 427 560 b 742 458 693 560 734 502 l 1086 458 b 556 781 1064 645 934 781 b 37 375 206 781 37 631 b 556 -31 37 119 206 -31 b 1088 297 934 -31 1068 105 l 743 297 b 556 191 736 248 693 191 z "},"ć":{"ha":1125,"x_min":0,"x_max":0,"o":"m 950 1040 l 528 1040 l 416 834 l 684 834 z m 556 191 b 364 375 427 191 364 262 b 556 560 364 489 427 560 b 742 458 693 560 734 502 l 1086 458 b 556 781 1064 645 934 781 b 37 375 206 781 37 631 b 556 -31 37 119 206 -31 b 1088 297 934 -31 1068 105 l 743 297 b 556 191 736 248 693 191 z "},"č":{"ha":1125,"x_min":0,"x_max":0,"o":"m 638 1038 l 560 940 l 552 940 l 474 1038 l 156 1038 l 338 834 l 774 834 l 956 1038 z m 556 191 b 364 375 427 191 364 262 b 556 560 364 489 427 560 b 742 458 693 560 734 502 l 1086 458 b 556 781 1064 645 934 781 b 37 375 206 781 37 631 b 556 -31 37 119 206 -31 b 1088 297 934 -31 1068 105 l 743 297 b 556 191 736 248 693 191 z "},"ç":{"ha":1125,"x_min":0,"x_max":0,"o":"m 1088 297 l 743 297 b 556 191 736 248 693 191 b 364 375 427 191 364 262 b 556 560 364 489 427 560 b 742 458 693 560 734 502 l 1086 458 b 556 781 1064 645 934 781 b 37 375 206 781 37 631 b 492 -30 37 136 185 -12 l 430 -106 l 430 -176 l 438 -176 b 552 -165 466 -169 525 -165 b 634 -204 603 -165 634 -173 b 552 -244 634 -235 603 -244 b 363 -214 477 -244 441 -238 l 355 -214 l 355 -328 b 564 -353 433 -350 498 -353 b 850 -203 767 -353 850 -314 b 635 -66 850 -103 783 -66 b 601 -69 625 -66 608 -68 l 634 -28 b 1088 297 952 -10 1069 119 z "},"ĉ":{"ha":1125,"x_min":0,"x_max":0,"o":"m 638 834 l 956 834 l 774 1038 l 338 1038 l 156 834 l 474 834 l 552 933 l 560 933 z m 556 191 b 364 375 427 191 364 262 b 556 560 364 489 427 560 b 742 458 693 560 734 502 l 1086 458 b 556 781 1064 645 934 781 b 37 375 206 781 37 631 b 556 -31 37 119 206 -31 b 1088 297 934 -31 1068 105 l 743 297 b 556 191 736 248 693 191 z "},"ċ":{"ha":1125,"x_min":0,"x_max":0,"o":"m 396 839 l 716 839 l 716 1011 l 396 1011 z m 556 191 b 364 375 427 191 364 262 b 556 560 364 489 427 560 b 742 458 693 560 734 502 l 1086 458 b 556 781 1064 645 934 781 b 37 375 206 781 37 631 b 556 -31 37 119 206 -31 b 1088 297 934 -31 1068 105 l 743 297 b 556 191 736 248 693 191 z "},"d":{"ha":1139,"x_min":0,"x_max":0,"o":"m 753 668 b 469 770 687 730 595 770 b 37 369 206 770 37 630 b 469 -31 37 109 206 -31 b 758 81 595 -31 691 10 l 767 81 l 767 0 l 1075 0 l 1075 1006 l 761 1006 l 761 668 z m 564 191 b 364 369 428 191 364 256 b 564 548 364 483 428 548 b 771 369 703 548 771 478 b 564 191 771 261 703 191 z "},"ð":{"ha":1117,"x_min":0,"x_max":0,"o":"m 715 922 l 834 990 l 731 1061 l 573 972 b 234 1036 476 998 364 1020 l 108 847 b 300 817 179 838 241 827 l 179 748 l 282 677 l 459 777 b 714 618 600 734 682 679 l 709 615 b 502 666 644 652 566 666 b 37 318 289 666 37 595 b 528 -32 37 44 277 -32 b 1080 433 871 -32 1080 80 b 715 922 1080 622 997 803 z m 553 187 b 364 318 436 187 364 225 b 553 447 364 410 436 447 b 741 318 669 447 741 410 b 553 187 741 225 669 187 z "},"ď":{"ha":1413,"x_min":0,"x_max":0,"o":"m 753 668 b 469 770 687 730 595 770 b 37 369 206 770 37 630 b 469 -31 37 109 206 -31 b 758 81 595 -31 691 10 l 767 81 l 767 0 l 1075 0 l 1075 1006 l 761 1006 l 761 668 z m 1396 1006 l 1137 1006 l 1137 824 l 1258 824 b 1137 732 1258 760 1230 732 l 1137 638 b 1396 885 1325 638 1396 713 z m 564 191 b 364 369 428 191 364 256 b 564 548 364 483 428 548 b 771 369 703 548 771 478 b 564 191 771 261 703 191 z "},"đ":{"ha":1169,"x_min":0,"x_max":0,"o":"m 1075 937 l 1075 1006 l 761 1006 l 761 937 l 575 937 l 575 796 l 761 796 l 761 668 l 753 668 b 469 770 687 730 595 770 b 37 369 206 770 37 630 b 469 -31 37 109 206 -31 b 758 81 595 -31 691 10 l 767 81 l 767 0 l 1075 0 l 1075 796 l 1177 796 l 1177 937 z m 564 191 b 364 369 428 191 364 256 b 564 548 364 483 428 548 b 771 369 703 548 771 478 b 564 191 771 261 703 191 z "},"e":{"ha":1126,"x_min":0,"x_max":0,"o":"m 1089 375 b 563 781 1089 631 921 781 b 37 375 206 781 37 631 b 563 -31 37 119 206 -31 b 1078 233 969 -31 1070 105 l 742 233 b 563 162 733 218 701 162 b 366 301 442 162 380 206 l 1085 301 b 1089 375 1088 323 1089 356 z m 563 589 b 754 480 670 589 731 554 l 372 480 b 563 589 395 554 456 589 z "},"é":{"ha":1126,"x_min":0,"x_max":0,"o":"m 957 1040 l 535 1040 l 424 834 l 692 834 z m 1089 375 b 563 781 1089 631 921 781 b 37 375 206 781 37 631 b 563 -31 37 119 206 -31 b 1078 233 969 -31 1070 105 l 742 233 b 563 162 733 218 701 162 b 366 301 442 162 380 206 l 1085 301 b 1089 375 1088 323 1089 356 z m 563 589 b 754 480 670 589 731 554 l 372 480 b 563 589 395 554 456 589 z "},"ĕ":{"ha":1126,"x_min":0,"x_max":0,"o":"m 562 816 b 895 1042 718 816 890 886 l 648 1042 b 562 984 643 999 611 984 b 476 1042 513 984 481 999 l 231 1042 b 562 816 235 886 406 816 z m 1089 375 b 563 781 1089 631 921 781 b 37 375 206 781 37 631 b 563 -31 37 119 206 -31 b 1078 233 969 -31 1070 105 l 742 233 b 563 162 733 218 701 162 b 366 301 442 162 380 206 l 1085 301 b 1089 375 1088 323 1089 356 z m 563 589 b 754 480 670 589 731 554 l 372 480 b 563 589 395 554 456 589 z "},"ě":{"ha":1126,"x_min":0,"x_max":0,"o":"m 781 834 l 964 1038 l 645 1038 l 567 940 l 559 940 l 481 1038 l 163 1038 l 345 834 z m 1089 375 b 563 781 1089 631 921 781 b 37 375 206 781 37 631 b 563 -31 37 119 206 -31 b 1078 233 969 -31 1070 105 l 742 233 b 563 162 733 218 701 162 b 366 301 442 162 380 206 l 1085 301 b 1089 375 1088 323 1089 356 z m 563 589 b 754 480 670 589 731 554 l 372 480 b 563 589 395 554 456 589 z "},"ê":{"ha":1126,"x_min":0,"x_max":0,"o":"m 559 933 l 567 933 l 645 834 l 964 834 l 781 1038 l 345 1038 l 163 834 l 481 834 z m 1089 375 b 563 781 1089 631 921 781 b 37 375 206 781 37 631 b 563 -31 37 119 206 -31 b 1078 233 969 -31 1070 105 l 742 233 b 563 162 733 218 701 162 b 366 301 442 162 380 206 l 1085 301 b 1089 375 1088 323 1089 356 z m 563 589 b 754 480 670 589 731 554 l 372 480 b 563 589 395 554 456 589 z "},"ë":{"ha":1126,"x_min":0,"x_max":0,"o":"m 502 1011 l 214 1011 l 214 839 l 502 839 z m 913 1011 l 624 1011 l 624 839 l 913 839 z m 1089 375 b 563 781 1089 631 921 781 b 37 375 206 781 37 631 b 563 -31 37 119 206 -31 b 1078 233 969 -31 1070 105 l 742 233 b 563 162 733 218 701 162 b 366 301 442 162 380 206 l 1085 301 b 1089 375 1088 323 1089 356 z m 563 589 b 754 480 670 589 731 554 l 372 480 b 563 589 395 554 456 589 z "},"ė":{"ha":1126,"x_min":0,"x_max":0,"o":"m 723 1011 l 403 1011 l 403 839 l 723 839 z m 1089 375 b 563 781 1089 631 921 781 b 37 375 206 781 37 631 b 563 -31 37 119 206 -31 b 1078 233 969 -31 1070 105 l 742 233 b 563 162 733 218 701 162 b 366 301 442 162 380 206 l 1085 301 b 1089 375 1088 323 1089 356 z m 563 589 b 754 480 670 589 731 554 l 372 480 b 563 589 395 554 456 589 z "},"è":{"ha":1126,"x_min":0,"x_max":0,"o":"m 702 834 l 591 1040 l 169 1040 l 434 834 z m 1089 375 b 563 781 1089 631 921 781 b 37 375 206 781 37 631 b 563 -31 37 119 206 -31 b 1078 233 969 -31 1070 105 l 742 233 b 563 162 733 218 701 162 b 366 301 442 162 380 206 l 1085 301 b 1089 375 1088 323 1089 356 z m 563 589 b 754 480 670 589 731 554 l 372 480 b 563 589 395 554 456 589 z "},"ē":{"ha":1126,"x_min":0,"x_max":0,"o":"m 896 1019 l 231 1019 l 231 849 l 896 849 z m 1089 375 b 563 781 1089 631 921 781 b 37 375 206 781 37 631 b 563 -31 37 119 206 -31 b 1078 233 969 -31 1070 105 l 742 233 b 563 162 733 218 701 162 b 366 301 442 162 380 206 l 1085 301 b 1089 375 1088 323 1089 356 z m 563 589 b 754 480 670 589 731 554 l 372 480 b 563 589 395 554 456 589 z "},"ę":{"ha":1126,"x_min":0,"x_max":0,"o":"m 1089 375 b 563 781 1089 631 921 781 b 37 375 206 781 37 631 b 530 -31 37 128 194 -21 b 422 -180 466 -70 422 -123 b 697 -335 422 -276 509 -335 b 841 -322 758 -335 799 -332 l 841 -172 b 746 -183 822 -176 798 -183 b 685 -131 719 -183 685 -169 b 832 -4 685 -89 740 -35 b 1078 233 1017 43 1072 141 l 742 233 b 563 162 733 218 701 162 b 366 301 442 162 380 206 l 1085 301 b 1089 375 1088 323 1089 356 z m 563 589 b 754 480 670 589 731 554 l 372 480 b 563 589 395 554 456 589 z "},"f":{"ha":688,"x_min":0,"x_max":0,"o":"m 583 840 b 665 836 626 840 647 838 l 665 1037 b 515 1046 648 1037 601 1046 b 141 802 277 1046 141 995 l 141 750 l 18 750 l 18 569 l 141 569 l 141 0 l 455 0 l 455 569 l 648 569 l 648 750 l 455 750 b 583 840 444 821 473 840 z "},"g":{"ha":1125,"x_min":0,"x_max":0,"o":"m 753 750 l 753 664 l 745 664 b 459 770 683 733 581 770 b 37 415 202 770 37 651 b 459 61 37 180 202 61 b 739 160 581 61 680 97 l 747 160 l 747 46 b 560 -79 747 -35 722 -79 b 398 0 425 -79 403 -35 l 57 0 b 560 -272 69 -136 137 -272 b 1061 46 997 -272 1061 -150 l 1061 750 z m 555 276 b 364 415 426 276 364 329 b 555 555 364 502 426 555 b 754 415 692 555 754 499 b 555 276 754 332 692 276 z "},"ğ":{"ha":1125,"x_min":0,"x_max":0,"o":"m 881 1042 l 635 1042 b 548 984 629 999 597 984 b 462 1042 499 984 467 999 l 217 1042 b 548 816 221 886 393 816 b 881 1042 704 816 876 886 z m 753 750 l 753 664 l 745 664 b 459 770 683 733 581 770 b 37 415 202 770 37 651 b 459 61 37 180 202 61 b 739 160 581 61 680 97 l 747 160 l 747 46 b 560 -79 747 -35 722 -79 b 398 0 425 -79 403 -35 l 57 0 b 560 -272 69 -136 137 -272 b 1061 46 997 -272 1061 -150 l 1061 750 z m 555 276 b 364 415 426 276 364 329 b 555 555 364 502 426 555 b 754 415 692 555 754 499 b 555 276 754 332 692 276 z "},"ĝ":{"ha":1125,"x_min":0,"x_max":0,"o":"m 631 834 l 950 834 l 767 1038 l 331 1038 l 149 834 l 467 834 l 545 933 l 553 933 z m 753 750 l 753 664 l 745 664 b 459 770 683 733 581 770 b 37 415 202 770 37 651 b 459 61 37 180 202 61 b 739 160 581 61 680 97 l 747 160 l 747 46 b 560 -79 747 -35 722 -79 b 398 0 425 -79 403 -35 l 57 0 b 560 -272 69 -136 137 -272 b 1061 46 997 -272 1061 -150 l 1061 750 z m 555 276 b 364 415 426 276 364 329 b 555 555 364 502 426 555 b 754 415 692 555 754 499 b 555 276 754 332 692 276 z "},"ģ":{"ha":1125,"x_min":0,"x_max":0,"o":"m 390 839 l 709 839 l 709 1011 l 568 1011 b 709 1113 568 1071 598 1113 l 709 1193 b 390 948 483 1193 390 1141 z m 753 750 l 753 664 l 745 664 b 459 770 683 733 581 770 b 37 415 202 770 37 651 b 459 61 37 180 202 61 b 739 160 581 61 680 97 l 747 160 l 747 46 b 560 -79 747 -35 722 -79 b 398 0 425 -79 403 -35 l 57 0 b 560 -272 69 -136 137 -272 b 1061 46 997 -272 1061 -150 l 1061 750 z m 555 276 b 364 415 426 276 364 329 b 555 555 364 502 426 555 b 754 415 692 555 754 499 b 555 276 754 332 692 276 z "},"ġ":{"ha":1125,"x_min":0,"x_max":0,"o":"m 390 839 l 709 839 l 709 1011 l 390 1011 z m 753 750 l 753 664 l 745 664 b 459 770 683 733 581 770 b 37 415 202 770 37 651 b 459 61 37 180 202 61 b 739 160 581 61 680 97 l 747 160 l 747 46 b 560 -79 747 -35 722 -79 b 398 0 425 -79 403 -35 l 57 0 b 560 -272 69 -136 137 -272 b 1061 46 997 -272 1061 -150 l 1061 750 z m 555 276 b 364 415 426 276 364 329 b 555 555 364 502 426 555 b 754 415 692 555 754 499 b 555 276 754 332 692 276 z "},"h":{"ha":1107,"x_min":0,"x_max":0,"o":"m 708 770 b 386 657 571 770 468 734 l 377 657 l 377 1006 l 64 1006 l 64 0 l 377 0 l 377 337 b 572 525 377 486 482 525 b 729 381 668 525 729 483 l 729 0 l 1043 0 l 1043 477 b 708 770 1043 679 904 770 z "},"ħ":{"ha":1139,"x_min":0,"x_max":0,"o":"m 740 770 b 418 657 603 770 501 734 l 410 657 l 410 796 l 596 796 l 596 937 l 410 937 l 410 1006 l 96 1006 l 96 937 l -6 937 l -6 796 l 96 796 l 96 0 l 410 0 l 410 337 b 605 525 410 486 515 525 b 761 381 701 525 761 483 l 761 0 l 1075 0 l 1075 477 b 740 770 1075 679 936 770 z "},"ĥ":{"ha":1107,"x_min":0,"x_max":0,"o":"m 302 1080 l 621 1080 l 439 1284 l 2 1284 l -180 1080 l 139 1080 l 216 1178 l 225 1178 z m 708 770 b 386 657 571 770 468 734 l 377 657 l 377 1006 l 64 1006 l 64 0 l 377 0 l 377 337 b 572 525 377 486 482 525 b 729 381 668 525 729 483 l 729 0 l 1043 0 l 1043 477 b 708 770 1043 679 904 770 z "},"i":{"ha":442,"x_min":0,"x_max":0,"o":"m 61 839 l 380 839 l 380 1011 l 61 1011 z m 64 0 l 377 0 l 377 750 l 64 750 z "},"ı":{"ha":442,"x_min":0,"x_max":0,"o":"m 64 0 l 377 0 l 377 750 l 64 750 z "},"í":{"ha":442,"x_min":0,"x_max":0,"o":"m 614 1040 l 192 1040 l 81 834 l 349 834 z m 64 0 l 377 0 l 377 750 l 64 750 z "},"ĭ":{"ha":442,"x_min":0,"x_max":0,"o":"m 552 1042 l 306 1042 b 219 984 300 999 268 984 b 133 1042 171 984 139 999 l -112 1042 b 219 816 -108 886 64 816 b 552 1042 375 816 547 886 z m 64 0 l 377 0 l 377 750 l 64 750 z "},"î":{"ha":442,"x_min":0,"x_max":0,"o":"m 302 834 l 621 834 l 439 1038 l 2 1038 l -180 834 l 139 834 l 216 933 l 225 933 z m 64 0 l 377 0 l 377 750 l 64 750 z "},"ï":{"ha":442,"x_min":0,"x_max":0,"o":"m -129 839 l 159 839 l 159 1011 l -129 1011 z m 282 839 l 570 839 l 570 1011 l 282 1011 z m 64 0 l 377 0 l 377 750 l 64 750 z "},"ì":{"ha":442,"x_min":0,"x_max":0,"o":"m -174 1040 l 91 834 l 360 834 l 248 1040 z m 64 0 l 377 0 l 377 750 l 64 750 z "},"ĳ":{"ha":882,"x_min":0,"x_max":0,"o":"m 61 839 l 380 839 l 380 1011 l 61 1011 z m 502 839 l 821 839 l 821 1011 l 502 1011 z m 64 0 l 377 0 l 377 750 l 64 750 z m 448 -27 b 384 -25 420 -27 396 -25 l 384 -267 b 504 -272 422 -271 458 -272 b 818 -46 745 -272 818 -225 l 818 750 l 505 750 l 505 35 b 448 -27 505 -16 482 -27 z "},"ī":{"ha":442,"x_min":0,"x_max":0,"o":"m 553 849 l 553 1019 l -112 1019 l -112 849 z m 64 0 l 377 0 l 377 750 l 64 750 z "},"į":{"ha":442,"x_min":0,"x_max":0,"o":"m 61 1011 l 61 839 l 380 839 l 380 1011 z m 64 0 l 131 0 b -42 -180 33 -36 -42 -106 b 233 -335 -42 -276 45 -335 b 377 -322 294 -335 336 -332 l 377 -172 b 295 -183 358 -176 334 -183 b 222 -131 256 -183 222 -169 b 377 0 222 -88 280 -31 l 377 750 l 64 750 z "},"ĩ":{"ha":442,"x_min":0,"x_max":0,"o":"m 369 809 b 589 1043 467 809 589 880 l 384 1043 b 339 994 382 1008 375 994 b 70 1058 283 994 164 1058 b -147 824 -28 1058 -147 987 l 58 824 b 103 874 60 859 67 874 b 369 809 159 874 277 809 z m 64 0 l 377 0 l 377 750 l 64 750 z "},"j":{"ha":442,"x_min":0,"x_max":0,"o":"m 61 839 l 380 839 l 380 1011 l 61 1011 z m 7 -27 b -57 -25 -21 -27 -45 -25 l -57 -267 b 63 -272 -19 -271 18 -272 b 377 -46 304 -272 377 -225 l 377 750 l 64 750 l 64 35 b 7 -27 64 -16 41 -27 z "},"ȷ":{"ha":442,"x_min":0,"x_max":0,"o":"m 7 -27 b -57 -25 -21 -27 -45 -25 l -57 -267 b 63 -272 -19 -271 18 -272 b 377 -46 304 -272 377 -225 l 377 750 l 64 750 l 64 35 b 7 -27 64 -16 41 -27 z "},"ĵ":{"ha":804,"x_min":0,"x_max":0,"o":"m 425 834 l 743 834 l 561 1038 l 125 1038 l -57 834 l 261 834 l 339 933 l 347 933 z m 130 -27 b 65 -25 102 -27 77 -25 l 65 -267 b 186 -272 103 -271 140 -272 b 500 -46 427 -272 500 -225 l 500 750 l 186 750 l 186 35 b 130 -27 186 -16 163 -27 z "},"k":{"ha":1043,"x_min":0,"x_max":0,"o":"m 678 456 l 1011 750 l 651 750 l 377 496 l 377 1006 l 64 1006 l 64 0 l 377 0 l 377 189 l 471 272 l 672 0 l 1045 0 z "},"ķ":{"ha":1043,"x_min":0,"x_max":0,"o":"m 678 456 l 1011 750 l 651 750 l 377 496 l 377 1006 l 64 1006 l 64 0 l 377 0 l 377 189 l 471 272 l 672 0 l 1045 0 z m 685 -85 l 365 -85 l 365 -257 l 506 -257 b 365 -326 506 -295 499 -326 l 365 -406 b 685 -214 663 -406 685 -349 z "},"ĸ":{"ha":1043,"x_min":0,"x_max":0,"o":"m 678 456 l 1011 750 l 651 750 l 377 496 l 377 750 l 64 750 l 64 0 l 377 0 l 377 189 l 471 272 l 672 0 l 1045 0 z "},"l":{"ha":442,"x_min":0,"x_max":0,"o":"m 64 0 l 377 0 l 377 1006 l 64 1006 z "},"ĺ":{"ha":692,"x_min":0,"x_max":0,"o":"m 628 1285 l 206 1285 l 95 1080 l 363 1080 z m 64 0 l 377 0 l 377 1006 l 64 1006 z "},"ľ":{"ha":715,"x_min":0,"x_max":0,"o":"m 64 0 l 377 0 l 377 1006 l 64 1006 z m 698 1006 l 439 1006 l 439 824 l 560 824 b 439 732 560 760 532 732 l 439 638 b 698 885 627 638 698 713 z "},"ļ":{"ha":447,"x_min":0,"x_max":0,"o":"m 66 0 l 380 0 l 380 1006 l 66 1006 z m 383 -85 l 64 -85 l 64 -257 l 204 -257 b 64 -326 204 -295 198 -326 l 64 -406 b 383 -214 361 -406 383 -349 z "},"ŀ":{"ha":829,"x_min":0,"x_max":0,"o":"m 64 0 l 377 0 l 377 1006 l 64 1006 z m 619 327 b 792 501 715 327 792 404 b 619 674 792 597 715 674 b 445 501 522 674 445 597 b 619 327 445 404 522 327 z "},"ł":{"ha":560,"x_min":0,"x_max":0,"o":"m 534 756 l 436 716 l 436 1006 l 123 1006 l 123 590 l 25 551 l 25 350 l 123 389 l 123 0 l 436 0 l 436 515 l 534 555 z "},"m":{"ha":1678,"x_min":0,"x_max":0,"o":"m 372 750 l 64 750 l 64 0 l 377 0 l 377 363 b 546 525 377 492 469 525 b 682 401 629 525 682 489 l 682 0 l 995 0 l 995 363 b 1164 525 995 492 1087 525 b 1300 401 1247 525 1300 489 l 1300 0 l 1614 0 l 1614 477 b 1300 770 1614 679 1477 770 b 965 650 1171 770 1046 736 b 690 770 913 744 813 770 b 380 652 576 770 450 735 l 372 652 z "},"n":{"ha":1107,"x_min":0,"x_max":0,"o":"m 372 750 l 64 750 l 64 0 l 377 0 l 377 337 b 572 525 377 486 482 525 b 729 381 668 525 729 483 l 729 0 l 1043 0 l 1043 477 b 708 770 1043 679 904 770 b 380 657 571 770 468 734 l 372 657 z "},"ń":{"ha":1107,"x_min":0,"x_max":0,"o":"m 947 1040 l 525 1040 l 414 834 l 682 834 z m 372 750 l 64 750 l 64 0 l 377 0 l 377 337 b 572 525 377 486 482 525 b 729 381 668 525 729 483 l 729 0 l 1043 0 l 1043 477 b 708 770 1043 679 904 770 b 380 657 571 770 468 734 l 372 657 z "},"ŉ":{"ha":1393,"x_min":0,"x_max":0,"o":"m 299 1006 l 40 1006 l 40 824 l 161 824 b 40 732 161 760 133 732 l 40 638 b 299 885 228 638 299 713 z m 658 750 l 349 750 l 349 0 l 663 0 l 663 337 b 858 525 663 486 768 525 b 1015 381 954 525 1015 483 l 1015 0 l 1329 0 l 1329 477 b 994 770 1329 679 1190 770 b 666 657 857 770 754 734 l 658 657 z "},"ň":{"ha":1107,"x_min":0,"x_max":0,"o":"m 635 1038 l 557 940 l 549 940 l 471 1038 l 153 1038 l 335 834 l 771 834 l 954 1038 z m 372 750 l 64 750 l 64 0 l 377 0 l 377 337 b 572 525 377 486 482 525 b 729 381 668 525 729 483 l 729 0 l 1043 0 l 1043 477 b 708 770 1043 679 904 770 b 380 657 571 770 468 734 l 372 657 z "},"ņ":{"ha":1107,"x_min":0,"x_max":0,"o":"m 372 750 l 64 750 l 64 0 l 377 0 l 377 337 b 572 525 377 486 482 525 b 729 381 668 525 729 483 l 729 0 l 1043 0 l 1043 477 b 708 770 1043 679 904 770 b 380 657 571 770 468 734 l 372 657 z m 713 -85 l 394 -85 l 394 -257 l 534 -257 b 394 -326 534 -295 528 -326 l 394 -406 b 713 -214 691 -406 713 -349 z "},"ŋ":{"ha":1107,"x_min":0,"x_max":0,"o":"m 708 770 b 380 657 571 770 468 734 l 372 657 l 372 750 l 64 750 l 64 0 l 377 0 l 377 337 b 572 525 377 486 482 525 b 729 381 668 525 729 483 l 729 35 b 673 -27 729 -16 706 -27 b 608 -25 645 -27 620 -25 l 608 -267 b 729 -272 646 -271 683 -272 b 1043 -46 970 -272 1043 -225 l 1043 477 b 708 770 1043 679 904 770 z "},"ñ":{"ha":1107,"x_min":0,"x_max":0,"o":"m 702 809 b 922 1043 800 809 922 880 l 717 1043 b 672 994 715 1008 708 994 b 403 1058 616 994 496 1058 b 186 824 305 1058 186 987 l 391 824 b 436 874 393 859 400 874 b 702 809 492 874 610 809 z m 372 750 l 64 750 l 64 0 l 377 0 l 377 337 b 572 525 377 486 482 525 b 729 381 668 525 729 483 l 729 0 l 1043 0 l 1043 477 b 708 770 1043 679 904 770 b 380 657 571 770 468 734 l 372 657 z "},"o":{"ha":1126,"x_min":0,"x_max":0,"o":"m 563 781 b 37 375 206 781 37 631 b 563 -31 37 119 206 -31 b 1089 375 921 -31 1089 119 b 563 781 1089 631 921 781 z m 563 191 b 364 375 427 191 364 262 b 563 560 364 489 427 560 b 763 375 700 560 763 489 b 563 191 763 262 700 191 z "},"ó":{"ha":1126,"x_min":0,"x_max":0,"o":"m 957 1040 l 535 1040 l 424 834 l 692 834 z m 563 781 b 37 375 206 781 37 631 b 563 -31 37 119 206 -31 b 1089 375 921 -31 1089 119 b 563 781 1089 631 921 781 z m 563 191 b 364 375 427 191 364 262 b 563 560 364 489 427 560 b 763 375 700 560 763 489 b 563 191 763 262 700 191 z "},"ŏ":{"ha":1126,"x_min":0,"x_max":0,"o":"m 895 1042 l 648 1042 b 562 984 643 999 611 984 b 476 1042 513 984 481 999 l 231 1042 b 562 816 235 886 406 816 b 895 1042 718 816 890 886 z m 563 781 b 37 375 206 781 37 631 b 563 -31 37 119 206 -31 b 1089 375 921 -31 1089 119 b 563 781 1089 631 921 781 z m 563 191 b 364 375 427 191 364 262 b 563 560 364 489 427 560 b 763 375 700 560 763 489 b 563 191 763 262 700 191 z "},"ô":{"ha":1126,"x_min":0,"x_max":0,"o":"m 645 834 l 964 834 l 781 1038 l 345 1038 l 163 834 l 481 834 l 559 933 l 567 933 z m 563 781 b 37 375 206 781 37 631 b 563 -31 37 119 206 -31 b 1089 375 921 -31 1089 119 b 563 781 1089 631 921 781 z m 563 191 b 364 375 427 191 364 262 b 563 560 364 489 427 560 b 763 375 700 560 763 489 b 563 191 763 262 700 191 z "},"ö":{"ha":1126,"x_min":0,"x_max":0,"o":"m 214 839 l 502 839 l 502 1011 l 214 1011 z m 624 839 l 913 839 l 913 1011 l 624 1011 z m 563 781 b 37 375 206 781 37 631 b 563 -31 37 119 206 -31 b 1089 375 921 -31 1089 119 b 563 781 1089 631 921 781 z m 563 191 b 364 375 427 191 364 262 b 563 560 364 489 427 560 b 763 375 700 560 763 489 b 563 191 763 262 700 191 z "},"ò":{"ha":1126,"x_min":0,"x_max":0,"o":"m 169 1040 l 434 834 l 702 834 l 591 1040 z m 563 781 b 37 375 206 781 37 631 b 563 -31 37 119 206 -31 b 1089 375 921 -31 1089 119 b 563 781 1089 631 921 781 z m 563 191 b 364 375 427 191 364 262 b 563 560 364 489 427 560 b 763 375 700 560 763 489 b 563 191 763 262 700 191 z "},"ő":{"ha":1126,"x_min":0,"x_max":0,"o":"m 668 1040 l 339 1040 l 236 834 l 487 834 z m 1070 1040 l 741 1040 l 638 834 l 889 834 z m 563 781 b 37 375 206 781 37 631 b 563 -31 37 119 206 -31 b 1089 375 921 -31 1089 119 b 563 781 1089 631 921 781 z m 563 191 b 364 375 427 191 364 262 b 563 560 364 489 427 560 b 763 375 700 560 763 489 b 563 191 763 262 700 191 z "},"ō":{"ha":1126,"x_min":0,"x_max":0,"o":"m 896 849 l 896 1019 l 231 1019 l 231 849 z m 563 781 b 37 375 206 781 37 631 b 563 -31 37 119 206 -31 b 1089 375 921 -31 1089 119 b 563 781 1089 631 921 781 z m 563 191 b 364 375 427 191 364 262 b 563 560 364 489 427 560 b 763 375 700 560 763 489 b 563 191 763 262 700 191 z "},"ø":{"ha":1126,"x_min":0,"x_max":0,"o":"m 985 652 l 1072 722 l 985 781 l 901 713 b 563 781 818 758 705 781 b 37 375 206 781 37 631 b 141 99 37 260 71 167 l 55 29 l 141 -30 l 225 37 b 563 -31 309 -7 421 -31 b 1089 375 921 -31 1089 119 b 986 652 1089 490 1055 584 z m 364 375 b 563 560 364 489 427 560 b 680 535 611 560 650 551 l 379 291 b 364 375 369 315 364 344 z m 563 191 b 446 216 515 191 476 200 l 748 460 b 763 375 758 435 763 407 b 563 191 763 262 700 191 z "},"ǿ":{"ha":1126,"x_min":0,"x_max":0,"o":"m 957 1040 l 535 1040 l 424 834 l 692 834 z m 985 652 l 1072 722 l 985 781 l 901 713 b 563 781 818 758 705 781 b 37 375 206 781 37 631 b 141 99 37 260 71 167 l 55 29 l 141 -30 l 225 37 b 563 -31 309 -7 421 -31 b 1089 375 921 -31 1089 119 b 986 652 1089 490 1055 584 z m 364 375 b 563 560 364 489 427 560 b 680 535 611 560 650 551 l 379 291 b 364 375 369 315 364 344 z m 563 191 b 446 216 515 191 476 200 l 748 460 b 763 375 758 435 763 407 b 563 191 763 262 700 191 z "},"õ":{"ha":1126,"x_min":0,"x_max":0,"o":"m 712 809 b 931 1043 810 809 931 880 l 727 1043 b 682 994 725 1008 718 994 b 413 1058 626 994 506 1058 b 196 824 315 1058 196 987 l 401 824 b 446 874 403 859 410 874 b 712 809 502 874 620 809 z m 563 781 b 37 375 206 781 37 631 b 563 -31 37 119 206 -31 b 1089 375 921 -31 1089 119 b 563 781 1089 631 921 781 z m 563 191 b 364 375 427 191 364 262 b 563 560 364 489 427 560 b 763 375 700 560 763 489 b 563 191 763 262 700 191 z "},"œ":{"ha":1771,"x_min":0,"x_max":0,"o":"m 1733 375 b 1221 781 1733 631 1572 781 b 886 688 1077 781 964 749 b 549 781 807 749 694 781 b 37 375 199 781 37 631 b 549 -31 37 119 199 -31 b 886 63 694 -31 807 2 b 1220 -31 964 2 1076 -31 b 1722 233 1620 -31 1715 105 l 1386 233 b 1220 162 1379 218 1351 162 b 1036 301 1107 162 1049 206 l 1729 301 b 1733 375 1732 323 1733 356 z m 1221 589 b 1399 480 1321 589 1378 554 l 1043 480 b 1221 589 1064 554 1121 589 z m 549 191 b 364 375 421 191 364 262 b 549 560 364 489 421 560 b 735 375 677 560 735 489 b 549 191 735 262 677 191 z "},"p":{"ha":1139,"x_min":0,"x_max":0,"o":"m 386 70 b 669 -31 451 9 543 -31 b 1101 369 932 -31 1101 109 b 669 770 1101 630 932 770 b 380 658 543 770 447 729 l 372 658 l 372 750 l 64 750 l 64 -253 l 377 -253 l 377 70 z m 575 548 b 775 369 710 548 775 483 b 575 191 775 256 710 191 b 367 369 435 191 367 261 b 575 548 367 478 435 548 z "},"þ":{"ha":1139,"x_min":0,"x_max":0,"o":"m 386 70 b 669 -31 451 9 543 -31 b 1101 369 932 -31 1101 109 b 669 770 1101 630 932 770 b 386 668 543 770 451 730 l 377 668 l 377 1006 l 64 1006 l 64 -253 l 377 -253 l 377 70 z m 575 548 b 775 369 710 548 775 483 b 575 191 775 256 710 191 b 367 369 435 191 367 261 b 575 548 367 478 435 548 z "},"q":{"ha":1139,"x_min":0,"x_max":0,"o":"m 753 70 l 761 70 l 761 -253 l 1075 -253 l 1075 750 l 767 750 l 767 658 l 758 658 b 469 770 691 729 595 770 b 37 369 206 770 37 630 b 469 -31 37 109 206 -31 b 753 70 595 -31 687 9 z m 564 548 b 771 369 703 548 771 478 b 564 191 771 261 703 191 b 364 369 428 191 364 256 b 564 548 364 483 428 548 z "},"r":{"ha":806,"x_min":0,"x_max":0,"o":"m 64 750 l 64 0 l 377 0 l 377 270 b 643 481 377 448 510 481 b 777 466 686 481 741 474 l 777 765 b 719 770 761 768 739 770 b 380 650 568 770 460 736 l 372 650 l 372 750 z "},"ŕ":{"ha":843,"x_min":0,"x_max":0,"o":"m 815 1040 l 393 1040 l 281 834 l 549 834 z m 64 750 l 64 0 l 377 0 l 377 270 b 643 481 377 448 510 481 b 777 466 686 481 741 474 l 777 765 b 719 770 761 768 739 770 b 380 650 568 770 460 736 l 372 650 l 372 750 z "},"ř":{"ha":893,"x_min":0,"x_max":0,"o":"m 546 1038 l 468 940 l 460 940 l 382 1038 l 64 1038 l 246 834 l 682 834 l 864 1038 z m 107 750 l 107 0 l 420 0 l 420 270 b 686 481 420 448 553 481 b 820 466 730 481 784 474 l 820 765 b 762 770 804 768 782 770 b 423 650 611 770 503 736 l 415 650 l 415 750 z "},"ŗ":{"ha":808,"x_min":0,"x_max":0,"o":"m 66 750 l 66 0 l 380 0 l 380 270 b 645 481 380 448 513 481 b 780 466 689 481 744 474 l 780 765 b 721 770 764 768 742 770 b 383 650 571 770 463 736 l 374 650 l 374 750 z m 383 -85 l 64 -85 l 64 -257 l 204 -257 b 64 -326 204 -295 198 -326 l 64 -406 b 383 -214 361 -406 383 -349 z "},"s":{"ha":1081,"x_min":0,"x_max":0,"o":"m 680 530 l 1013 530 b 514 781 1005 726 794 781 b 43 530 245 781 43 731 b 348 296 43 371 154 320 l 612 263 b 696 211 673 255 696 244 b 539 154 696 179 665 154 b 366 238 420 154 372 173 l 21 238 b 532 -31 31 15 234 -31 b 1043 229 861 -31 1043 20 b 747 472 1043 398 945 451 l 457 504 b 379 549 397 510 379 520 b 511 600 379 578 416 600 b 680 530 607 600 674 583 z "},"ś":{"ha":1081,"x_min":0,"x_max":0,"o":"m 908 1040 l 486 1040 l 375 834 l 643 834 z m 680 530 l 1013 530 b 514 781 1005 726 794 781 b 43 530 245 781 43 731 b 348 296 43 371 154 320 l 612 263 b 696 211 673 255 696 244 b 539 154 696 179 665 154 b 366 238 420 154 372 173 l 21 238 b 532 -31 31 15 234 -31 b 1043 229 861 -31 1043 20 b 747 472 1043 398 945 451 l 457 504 b 379 549 397 510 379 520 b 511 600 379 578 416 600 b 680 530 607 600 674 583 z "},"š":{"ha":1081,"x_min":0,"x_max":0,"o":"m 596 1038 l 519 940 l 510 940 l 432 1038 l 114 1038 l 296 834 l 732 834 l 915 1038 z m 680 530 l 1013 530 b 514 781 1005 726 794 781 b 43 530 245 781 43 731 b 348 296 43 371 154 320 l 612 263 b 696 211 673 255 696 244 b 539 154 696 179 665 154 b 366 238 420 154 372 173 l 21 238 b 532 -31 31 15 234 -31 b 1043 229 861 -31 1043 20 b 747 472 1043 398 945 451 l 457 504 b 379 549 397 510 379 520 b 511 600 379 578 416 600 b 680 530 607 600 674 583 z "},"ş":{"ha":1081,"x_min":0,"x_max":0,"o":"m 1043 229 b 747 472 1043 398 945 451 l 457 504 b 379 549 397 510 379 520 b 511 600 379 578 416 600 b 680 530 607 600 674 583 l 1013 530 b 514 781 1005 726 794 781 b 43 530 245 781 43 731 b 348 296 43 371 154 320 l 612 263 b 696 211 673 255 696 244 b 539 154 696 179 665 154 b 366 238 420 154 372 173 l 21 238 b 469 -30 30 31 206 -23 l 407 -106 l 407 -176 l 415 -176 b 530 -165 443 -169 502 -165 b 611 -204 580 -165 611 -173 b 530 -244 611 -235 580 -244 b 340 -214 455 -244 419 -238 l 332 -214 l 332 -328 b 541 -353 410 -350 475 -353 b 827 -203 744 -353 827 -314 b 613 -66 827 -103 760 -66 b 578 -69 602 -66 585 -68 l 610 -30 b 1043 229 889 -22 1043 36 z "},"ŝ":{"ha":1081,"x_min":0,"x_max":0,"o":"m 596 834 l 915 834 l 732 1038 l 296 1038 l 114 834 l 432 834 l 510 933 l 519 933 z m 680 530 l 1013 530 b 514 781 1005 726 794 781 b 43 530 245 781 43 731 b 348 296 43 371 154 320 l 612 263 b 696 211 673 255 696 244 b 539 154 696 179 665 154 b 366 238 420 154 372 173 l 21 238 b 532 -31 31 15 234 -31 b 1043 229 861 -31 1043 20 b 747 472 1043 398 945 451 l 457 504 b 379 549 397 510 379 520 b 511 600 379 578 416 600 b 680 530 607 600 674 583 z "},"ș":{"ha":1081,"x_min":0,"x_max":0,"o":"m 680 530 l 1013 530 b 514 781 1005 726 794 781 b 43 530 245 781 43 731 b 348 296 43 371 154 320 l 612 263 b 696 211 673 255 696 244 b 539 154 696 179 665 154 b 366 238 420 154 372 173 l 21 238 b 532 -31 31 15 234 -31 b 1043 229 861 -31 1043 20 b 747 472 1043 398 945 451 l 457 504 b 379 549 397 510 379 520 b 511 600 379 578 416 600 b 680 530 607 600 674 583 z m 692 -85 l 372 -85 l 372 -257 l 513 -257 b 372 -326 513 -295 507 -326 l 372 -406 b 692 -214 670 -406 692 -349 z "},"ß":{"ha":1188,"x_min":0,"x_max":0,"o":"m 912 583 b 1066 764 995 600 1066 644 b 581 1024 1066 918 962 1024 b 64 636 221 1024 64 918 l 64 0 l 379 0 l 379 627 b 581 798 379 778 484 798 b 740 718 679 798 740 778 b 597 627 740 657 679 627 l 481 627 l 481 445 l 609 445 b 823 327 744 445 823 412 b 643 203 823 241 733 203 b 481 222 572 203 519 212 l 481 -3 b 662 -22 516 -15 591 -22 b 1149 314 1037 -22 1149 94 b 912 575 1149 460 1080 561 z "},"t":{"ha":682,"x_min":0,"x_max":0,"o":"m 538 233 b 446 291 479 233 446 245 l 446 569 l 639 569 l 639 750 l 446 750 l 446 953 l 132 953 l 132 750 l 8 750 l 8 569 l 132 569 l 132 232 b 455 -12 132 51 208 -12 b 639 0 524 -12 605 -4 l 639 236 b 538 233 601 233 564 233 z "},"ŧ":{"ha":682,"x_min":0,"x_max":0,"o":"m 639 569 l 639 750 l 446 750 l 446 953 l 132 953 l 132 750 l 8 750 l 8 569 l 132 569 l 132 494 l 8 494 l 8 357 l 132 357 l 132 232 b 455 -12 132 51 208 -12 b 639 0 524 -12 605 -4 l 639 236 b 538 233 601 233 564 233 b 446 291 479 233 446 245 l 446 357 l 639 357 l 639 494 l 446 494 l 446 569 z "},"ť":{"ha":792,"x_min":0,"x_max":0,"o":"m 773 1182 l 514 1182 l 514 1001 l 635 1001 b 514 909 635 937 607 909 l 514 815 b 773 1062 702 815 773 889 z m 538 233 b 446 291 479 233 446 245 l 446 569 l 639 569 l 639 750 l 446 750 l 446 953 l 132 953 l 132 750 l 8 750 l 8 569 l 132 569 l 132 232 b 455 -12 132 51 208 -12 b 639 0 524 -12 605 -4 l 639 236 b 538 233 601 233 564 233 z "},"ţ":{"ha":715,"x_min":0,"x_max":0,"o":"m 457 -66 b 422 -69 446 -66 429 -68 l 469 -12 b 639 0 535 -11 607 -4 l 639 236 b 538 233 601 233 564 233 b 446 291 479 233 446 245 l 446 569 l 639 569 l 639 750 l 446 750 l 446 953 l 132 953 l 132 750 l 8 750 l 8 569 l 132 569 l 132 232 b 334 -6 132 85 182 16 l 251 -106 l 251 -176 l 260 -176 b 374 -165 288 -169 346 -165 b 456 -204 424 -165 456 -173 b 374 -244 456 -235 424 -244 b 185 -214 299 -244 263 -238 l 176 -214 l 176 -328 b 385 -353 254 -350 320 -353 b 672 -203 589 -353 672 -314 b 457 -66 672 -103 604 -66 z "},"ț":{"ha":682,"x_min":0,"x_max":0,"o":"m 538 233 b 446 291 479 233 446 245 l 446 569 l 639 569 l 639 750 l 446 750 l 446 953 l 132 953 l 132 750 l 8 750 l 8 569 l 132 569 l 132 232 b 455 -12 132 51 208 -12 b 639 0 524 -12 605 -4 l 639 236 b 538 233 601 233 564 233 z m 545 -85 l 226 -85 l 226 -257 l 367 -257 b 226 -326 367 -295 360 -326 l 226 -406 b 545 -214 524 -406 545 -349 z "},"u":{"ha":1107,"x_min":0,"x_max":0,"o":"m 735 0 l 1043 0 l 1043 750 l 729 750 l 729 413 b 534 225 729 264 624 225 b 377 369 438 225 377 268 l 377 750 l 64 750 l 64 274 b 399 -19 64 72 203 -19 b 727 94 536 -19 638 16 l 735 94 z "},"ú":{"ha":1107,"x_min":0,"x_max":0,"o":"m 947 1040 l 525 1040 l 414 834 l 682 834 z m 735 0 l 1043 0 l 1043 750 l 729 750 l 729 413 b 534 225 729 264 624 225 b 377 369 438 225 377 268 l 377 750 l 64 750 l 64 274 b 399 -19 64 72 203 -19 b 727 94 536 -19 638 16 l 735 94 z "},"ŭ":{"ha":1107,"x_min":0,"x_max":0,"o":"m 885 1042 l 639 1042 b 552 984 633 999 601 984 b 466 1042 503 984 471 999 l 221 1042 b 552 816 225 886 397 816 b 885 1042 708 816 880 886 z m 735 0 l 1043 0 l 1043 750 l 729 750 l 729 413 b 534 225 729 264 624 225 b 377 369 438 225 377 268 l 377 750 l 64 750 l 64 274 b 399 -19 64 72 203 -19 b 727 94 536 -19 638 16 l 735 94 z "},"û":{"ha":1107,"x_min":0,"x_max":0,"o":"m 635 834 l 954 834 l 771 1038 l 335 1038 l 153 834 l 471 834 l 549 933 l 557 933 z m 735 0 l 1043 0 l 1043 750 l 729 750 l 729 413 b 534 225 729 264 624 225 b 377 369 438 225 377 268 l 377 750 l 64 750 l 64 274 b 399 -19 64 72 203 -19 b 727 94 536 -19 638 16 l 735 94 z "},"ü":{"ha":1107,"x_min":0,"x_max":0,"o":"m 204 839 l 492 839 l 492 1011 l 204 1011 z m 615 839 l 903 839 l 903 1011 l 615 1011 z m 735 0 l 1043 0 l 1043 750 l 729 750 l 729 413 b 534 225 729 264 624 225 b 377 369 438 225 377 268 l 377 750 l 64 750 l 64 274 b 399 -19 64 72 203 -19 b 727 94 536 -19 638 16 l 735 94 z "},"ù":{"ha":1107,"x_min":0,"x_max":0,"o":"m 159 1040 l 424 834 l 692 834 l 581 1040 z m 735 0 l 1043 0 l 1043 750 l 729 750 l 729 413 b 534 225 729 264 624 225 b 377 369 438 225 377 268 l 377 750 l 64 750 l 64 274 b 399 -19 64 72 203 -19 b 727 94 536 -19 638 16 l 735 94 z "},"ű":{"ha":1124,"x_min":0,"x_max":0,"o":"m 658 1040 l 329 1040 l 226 834 l 477 834 z m 1060 1040 l 731 1040 l 628 834 l 879 834 z m 735 0 l 1043 0 l 1043 750 l 729 750 l 729 413 b 534 225 729 264 624 225 b 377 369 438 225 377 268 l 377 750 l 64 750 l 64 274 b 399 -19 64 72 203 -19 b 727 94 536 -19 638 16 l 735 94 z "},"ū":{"ha":1107,"x_min":0,"x_max":0,"o":"m 886 849 l 886 1019 l 221 1019 l 221 849 z m 735 0 l 1043 0 l 1043 750 l 729 750 l 729 413 b 534 225 729 264 624 225 b 377 369 438 225 377 268 l 377 750 l 64 750 l 64 274 b 399 -19 64 72 203 -19 b 727 94 536 -19 638 16 l 735 94 z "},"ų":{"ha":1107,"x_min":0,"x_max":0,"o":"m 1043 0 l 1043 750 l 729 750 l 729 413 b 534 225 729 264 624 225 b 377 369 438 225 377 268 l 377 750 l 64 750 l 64 274 b 399 -19 64 72 203 -19 b 727 94 536 -19 638 16 l 735 94 l 735 0 l 797 0 b 624 -180 698 -36 624 -106 b 899 -335 624 -276 711 -335 b 1043 -322 960 -335 1001 -332 l 1043 -172 b 961 -183 1024 -176 1000 -183 b 887 -131 922 -183 887 -169 b 1043 0 887 -88 945 -31 z "},"ů":{"ha":1107,"x_min":0,"x_max":0,"o":"m 553 816 b 796 1007 688 816 796 888 b 553 1197 796 1125 688 1197 b 311 1007 419 1197 311 1125 b 553 816 311 888 419 816 z m 553 941 b 475 1007 511 941 475 966 b 553 1073 475 1048 511 1073 b 632 1007 596 1073 632 1048 b 553 941 632 966 596 941 z m 735 0 l 1043 0 l 1043 750 l 729 750 l 729 413 b 534 225 729 264 624 225 b 377 369 438 225 377 268 l 377 750 l 64 750 l 64 274 b 399 -19 64 72 203 -19 b 727 94 536 -19 638 16 l 735 94 z "},"ũ":{"ha":1107,"x_min":0,"x_max":0,"o":"m 702 809 b 922 1043 800 809 922 880 l 717 1043 b 672 994 715 1008 708 994 b 403 1058 616 994 496 1058 b 186 824 305 1058 186 987 l 391 824 b 436 874 393 859 400 874 b 702 809 492 874 610 809 z m 735 0 l 1043 0 l 1043 750 l 729 750 l 729 413 b 534 225 729 264 624 225 b 377 369 438 225 377 268 l 377 750 l 64 750 l 64 274 b 399 -19 64 72 203 -19 b 727 94 536 -19 638 16 l 735 94 z "},"v":{"ha":1089,"x_min":0,"x_max":0,"o":"m 733 750 l 548 315 l 540 315 l 355 750 l -1 750 l 377 0 l 711 0 l 1089 750 z "},"w":{"ha":1600,"x_min":0,"x_max":0,"o":"m 1595 750 l 1249 750 l 1112 327 l 1104 327 l 959 750 l 645 750 l 507 326 l 499 326 l 355 750 l 6 750 l 315 0 l 661 0 l 800 428 l 808 428 l 947 0 l 1290 0 z "},"ẃ":{"ha":1600,"x_min":0,"x_max":0,"o":"m 1196 1040 l 774 1040 l 663 834 l 931 834 z m 1595 750 l 1249 750 l 1112 327 l 1104 327 l 959 750 l 645 750 l 507 326 l 499 326 l 355 750 l 6 750 l 315 0 l 661 0 l 800 428 l 808 428 l 947 0 l 1290 0 z "},"ŵ":{"ha":1600,"x_min":0,"x_max":0,"o":"m 884 834 l 1202 834 l 1020 1038 l 584 1038 l 402 834 l 720 834 l 798 933 l 806 933 z m 1595 750 l 1249 750 l 1112 327 l 1104 327 l 959 750 l 645 750 l 507 326 l 499 326 l 355 750 l 6 750 l 315 0 l 661 0 l 800 428 l 808 428 l 947 0 l 1290 0 z "},"ẅ":{"ha":1600,"x_min":0,"x_max":0,"o":"m 453 839 l 741 839 l 741 1011 l 453 1011 z m 863 839 l 1152 839 l 1152 1011 l 863 1011 z m 1595 750 l 1249 750 l 1112 327 l 1104 327 l 959 750 l 645 750 l 507 326 l 499 326 l 355 750 l 6 750 l 315 0 l 661 0 l 800 428 l 808 428 l 947 0 l 1290 0 z "},"ẁ":{"ha":1600,"x_min":0,"x_max":0,"o":"m 408 1040 l 673 834 l 941 834 l 830 1040 z m 1595 750 l 1249 750 l 1112 327 l 1104 327 l 959 750 l 645 750 l 507 326 l 499 326 l 355 750 l 6 750 l 315 0 l 661 0 l 800 428 l 808 428 l 947 0 l 1290 0 z "},"x":{"ha":1114,"x_min":0,"x_max":0,"o":"m 765 390 l 1074 750 l 696 750 l 558 552 l 417 750 l 39 750 l 348 390 l 3 0 l 403 0 l 558 208 l 710 0 l 1110 0 z "},"y":{"ha":1089,"x_min":0,"x_max":0,"o":"m 1089 750 l 733 750 l 548 315 l 540 315 l 355 750 l -1 750 l 363 41 l 352 18 b 238 -24 337 -14 316 -24 l 121 -24 l 121 -272 l 282 -272 b 705 -13 526 -272 595 -233 z "},"ý":{"ha":1089,"x_min":0,"x_max":0,"o":"m 938 1040 l 516 1040 l 405 834 l 673 834 z m 1089 750 l 733 750 l 548 315 l 540 315 l 355 750 l -1 750 l 363 41 l 352 18 b 238 -24 337 -14 316 -24 l 121 -24 l 121 -272 l 282 -272 b 705 -13 526 -272 595 -233 z "},"ŷ":{"ha":1089,"x_min":0,"x_max":0,"o":"m 626 834 l 944 834 l 762 1038 l 326 1038 l 144 834 l 462 834 l 540 933 l 548 933 z m 1089 750 l 733 750 l 548 315 l 540 315 l 355 750 l -1 750 l 363 41 l 352 18 b 238 -24 337 -14 316 -24 l 121 -24 l 121 -272 l 282 -272 b 705 -13 526 -272 595 -233 z "},"ÿ":{"ha":1089,"x_min":0,"x_max":0,"o":"m 195 839 l 483 839 l 483 1011 l 195 1011 z m 605 839 l 894 839 l 894 1011 l 605 1011 z m 1089 750 l 733 750 l 548 315 l 540 315 l 355 750 l -1 750 l 363 41 l 352 18 b 238 -24 337 -14 316 -24 l 121 -24 l 121 -272 l 282 -272 b 705 -13 526 -272 595 -233 z "},"ỳ":{"ha":1089,"x_min":0,"x_max":0,"o":"m 150 1040 l 415 834 l 683 834 l 572 1040 z m 1089 750 l 733 750 l 548 315 l 540 315 l 355 750 l -1 750 l 363 41 l 352 18 b 238 -24 337 -14 316 -24 l 121 -24 l 121 -272 l 282 -272 b 705 -13 526 -272 595 -233 z "},"z":{"ha":958,"x_min":0,"x_max":0,"o":"m 907 0 l 907 218 l 493 218 l 907 527 l 907 750 l 65 750 l 65 534 l 449 534 l 36 227 l 36 0 z "},"ź":{"ha":958,"x_min":0,"x_max":0,"o":"m 880 1040 l 458 1040 l 347 834 l 615 834 z m 907 0 l 907 218 l 493 218 l 907 527 l 907 750 l 65 750 l 65 534 l 449 534 l 36 227 l 36 0 z "},"ž":{"ha":958,"x_min":0,"x_max":0,"o":"m 569 1038 l 491 940 l 482 940 l 405 1038 l 86 1038 l 269 834 l 705 834 l 887 1038 z m 907 0 l 907 218 l 493 218 l 907 527 l 907 750 l 65 750 l 65 534 l 449 534 l 36 227 l 36 0 z "},"ż":{"ha":958,"x_min":0,"x_max":0,"o":"m 327 839 l 646 839 l 646 1011 l 327 1011 z m 907 0 l 907 218 l 493 218 l 907 527 l 907 750 l 65 750 l 65 534 l 449 534 l 36 227 l 36 0 z "},"ﬁ":{"ha":1107,"x_min":0,"x_max":0,"o":"m 583 840 b 665 836 626 840 647 838 l 665 1037 b 515 1046 648 1037 601 1046 b 141 802 277 1046 141 995 l 141 750 l 18 750 l 18 569 l 141 569 l 141 0 l 455 0 l 455 569 l 648 569 l 648 750 l 455 750 b 583 840 444 821 473 840 z m 727 839 l 1046 839 l 1046 1011 l 727 1011 z m 730 0 l 1044 0 l 1044 750 l 730 750 z "},"ﬂ":{"ha":1128,"x_min":0,"x_max":0,"o":"m 583 840 b 665 836 626 840 647 838 l 665 1037 b 515 1046 648 1037 601 1046 b 141 802 277 1046 141 995 l 141 750 l 18 750 l 18 569 l 141 569 l 141 0 l 455 0 l 455 569 l 648 569 l 648 750 l 455 750 b 583 840 444 821 473 840 z m 751 0 l 1064 0 l 1064 1006 l 751 1006 z "},"ª":{"ha":701,"x_min":0,"x_max":0,"o":"m 655 609 l 655 861 b 360 1004 655 978 533 1004 b 67 849 204 1004 74 971 l 282 849 b 363 890 285 878 320 890 b 442 859 417 890 442 878 b 393 830 442 839 428 832 l 194 812 b 36 666 99 804 36 768 b 240 518 36 558 140 518 b 453 597 333 518 413 546 l 453 580 b 468 537 453 562 461 544 l 669 537 l 669 541 b 655 609 655 558 655 583 z m 451 730 b 312 629 451 658 375 629 b 248 669 274 629 248 640 b 300 716 248 698 268 710 l 407 732 b 451 745 422 735 441 738 z m 27 159 l 27 0 l 679 0 l 679 159 z "},"º":{"ha":706,"x_min":0,"x_max":0,"o":"m 352 1004 b 27 762 127 1004 27 913 b 352 518 27 606 127 518 b 679 762 578 518 679 606 b 352 1004 679 913 578 1004 z m 352 656 b 238 762 272 656 238 697 b 352 865 238 824 272 865 b 467 762 433 865 467 824 b 352 656 467 697 433 656 z m 27 159 l 27 0 l 679 0 l 679 159 z "},"⁰":{"ha":819,"x_min":0,"x_max":0,"o":"m 409 1010 b 43 701 156 1010 43 901 b 409 395 43 504 156 395 b 777 701 662 395 777 504 b 409 1010 777 901 662 1010 z m 409 542 b 253 701 295 542 253 601 b 409 862 253 804 295 862 b 565 701 523 862 565 804 b 409 542 565 601 523 542 z "},"¹":{"ha":492,"x_min":0,"x_max":0,"o":"m 419 992 l 247 992 b 80 876 228 923 188 876 l 29 876 l 29 743 l 216 743 l 216 414 l 419 414 z "},"²":{"ha":768,"x_min":0,"x_max":0,"o":"m 357 599 l 523 636 b 715 829 645 663 715 709 b 375 1010 715 971 590 1010 b 45 788 162 1010 55 946 l 263 788 b 390 870 270 847 317 870 b 493 821 454 870 493 855 b 419 757 493 785 468 770 l 300 723 b 32 432 191 692 32 631 l 32 414 l 714 414 l 714 556 l 262 556 b 357 599 271 569 306 587 z "},"³":{"ha":756,"x_min":0,"x_max":0,"o":"m 605 713 l 605 718 b 702 837 668 729 702 768 b 365 1010 702 967 599 1010 b 44 811 144 1010 51 954 l 247 811 b 365 877 250 855 291 877 b 491 824 440 877 491 863 b 397 772 491 785 455 772 l 275 772 l 275 648 l 394 648 b 495 590 459 648 495 633 b 365 536 495 546 442 536 b 237 602 284 536 242 555 l 21 602 b 365 395 29 456 111 395 b 718 581 631 395 718 449 b 605 713 718 661 681 702 z "},"*":{"ha":731,"x_min":0,"x_max":0,"o":"m 691 785 l 594 922 l 450 815 l 453 992 l 276 992 l 279 815 l 135 922 l 39 785 l 224 667 l 39 553 l 135 414 l 279 524 l 276 346 l 453 346 l 450 524 l 594 414 l 691 553 l 504 667 z "},"\\":{"ha":729,"x_min":0,"x_max":0,"o":"m 267 992 l 27 992 l 463 0 l 703 0 z "},"·":{"ha":465,"x_min":0,"x_max":0,"o":"m 233 242 b 427 436 341 242 427 328 b 233 630 427 543 341 630 b 39 436 125 630 39 543 b 233 242 39 328 125 242 z "},"•":{"ha":614,"x_min":0,"x_max":0,"o":"m 307 232 b 570 496 452 232 570 350 b 307 760 570 642 452 760 b 43 496 161 760 43 642 b 307 232 43 350 161 232 z "},":":{"ha":474,"x_min":0,"x_max":0,"o":"m 73 475 l 400 475 l 400 750 l 73 750 z m 73 0 l 400 0 l 400 275 l 73 275 z "},",":{"ha":489,"x_min":0,"x_max":0,"o":"m 416 291 l 73 291 l 73 0 l 216 0 b 73 -166 216 -85 179 -166 l 73 -280 b 416 74 306 -280 416 -185 z "},"…":{"ha":1465,"x_min":0,"x_max":0,"o":"m 73 0 l 416 0 l 416 291 l 73 291 z m 561 0 l 904 0 l 904 291 l 561 291 z m 1050 0 l 1393 0 l 1393 291 l 1050 291 z "},"!":{"ha":507,"x_min":0,"x_max":0,"o":"m 386 352 l 434 829 l 434 992 l 73 992 l 73 829 l 121 352 z m 89 0 l 418 0 l 418 275 l 89 275 z "},"¡":{"ha":507,"x_min":0,"x_max":0,"o":"m 89 750 l 89 475 l 418 475 l 418 750 z m 386 399 l 121 399 l 73 -78 l 73 -241 l 434 -241 l 434 -78 z "},"#":{"ha":1093,"x_min":0,"x_max":0,"o":"m 1030 571 l 1069 723 l 898 723 l 958 972 l 763 972 l 701 723 l 509 723 l 570 972 l 373 972 l 311 723 l 138 723 l 100 571 l 274 571 l 232 400 l 63 400 l 24 251 l 196 251 l 134 0 l 332 0 l 393 251 l 586 251 l 524 0 l 721 0 l 783 251 l 953 251 l 994 400 l 819 400 l 861 571 z m 622 400 l 430 400 l 471 571 l 664 571 z "},".":{"ha":489,"x_min":0,"x_max":0,"o":"m 73 0 l 416 0 l 416 291 l 73 291 z "},"?":{"ha":1089,"x_min":0,"x_max":0,"o":"m 361 661 b 554 792 366 764 445 792 b 713 717 664 792 713 764 b 633 638 713 683 687 663 l 534 592 b 390 384 428 543 390 492 l 390 352 l 702 352 l 703 370 b 803 465 705 393 713 425 l 882 501 b 1061 732 988 548 1061 604 b 554 1014 1061 941 870 1014 b 28 661 243 1014 35 941 z m 382 0 l 711 0 l 711 275 l 382 275 z "},"¿":{"ha":1088,"x_min":0,"x_max":0,"o":"m 706 750 l 377 750 l 377 475 l 706 475 z m 727 89 b 533 -42 722 -13 642 -42 b 375 33 423 -42 375 -14 b 454 113 375 67 400 88 l 553 159 b 697 366 659 207 697 258 l 697 399 l 385 399 l 384 381 b 285 285 382 358 374 326 l 206 250 b 27 18 100 202 27 147 b 533 -264 27 -191 217 -264 b 1060 89 845 -264 1052 -191 z "},"\"":{"ha":724,"x_min":0,"x_max":0,"o":"m 292 508 l 292 992 l 48 992 l 48 508 z m 676 508 l 676 992 l 431 992 l 431 508 z "},"'":{"ha":340,"x_min":0,"x_max":0,"o":"m 292 508 l 292 992 l 48 992 l 48 508 z "},";":{"ha":474,"x_min":0,"x_max":0,"o":"m 73 475 l 400 475 l 400 750 l 73 750 z m 400 275 l 73 275 l 73 0 l 201 0 b 73 -166 201 -85 164 -166 l 73 -280 b 400 74 290 -280 400 -185 z "},"/":{"ha":718,"x_min":0,"x_max":0,"o":"m 452 992 l 16 0 l 256 0 l 692 992 z "},"_":{"ha":1036,"x_min":0,"x_max":0,"o":"m 1039 -146 l -3 -146 l -3 -229 l 1039 -229 z "},"{":{"ha":671,"x_min":0,"x_max":0,"o":"m 475 572 l 475 754 b 558 835 475 797 478 835 l 632 835 l 632 1028 l 415 1028 b 176 855 243 1028 176 960 l 176 625 b 39 501 176 520 122 501 l 39 288 b 176 164 122 288 176 269 l 176 -65 b 415 -239 176 -172 243 -239 l 632 -239 l 632 -46 l 558 -46 b 475 35 478 -46 475 -9 l 475 215 b 326 390 475 318 421 373 l 326 399 b 475 572 421 415 475 469 z "},"}":{"ha":664,"x_min":0,"x_max":0,"o":"m 195 572 b 344 399 195 469 249 415 l 344 390 b 195 215 249 373 195 318 l 195 35 b 112 -46 195 -9 192 -46 l 38 -46 l 38 -239 l 255 -239 b 494 -65 427 -239 494 -172 l 494 164 b 631 288 494 269 548 288 l 631 501 b 494 625 548 501 494 520 l 494 855 b 255 1028 494 960 427 1028 l 38 1028 l 38 835 l 112 835 b 195 754 192 835 195 797 z "},"[":{"ha":624,"x_min":0,"x_max":0,"o":"m 378 835 l 584 835 l 584 1028 l 73 1028 l 73 -239 l 584 -239 l 584 -46 l 378 -46 z "},"]":{"ha":631,"x_min":0,"x_max":0,"o":"m 253 835 l 253 -46 l 47 -46 l 47 -239 l 558 -239 l 558 1028 l 47 1028 l 47 835 z "},"(":{"ha":615,"x_min":0,"x_max":0,"o":"m 357 394 b 588 1028 357 718 520 963 l 311 1028 b 27 394 255 964 27 789 b 311 -239 27 0 255 -175 l 588 -239 b 357 394 520 -174 357 71 z "},")":{"ha":610,"x_min":0,"x_max":0,"o":"m 258 394 b 27 -239 258 71 95 -174 l 304 -239 b 588 394 360 -175 588 0 b 304 1028 588 789 360 964 l 27 1028 b 258 394 95 963 258 718 z "},"—":{"ha":1307,"x_min":0,"x_max":0,"o":"m 1269 306 l 1269 501 l 39 501 l 39 306 z "},"–":{"ha":982,"x_min":0,"x_max":0,"o":"m 940 306 l 940 501 l 40 501 l 40 306 z "},"-":{"ha":610,"x_min":0,"x_max":0,"o":"m 569 289 l 569 514 l 40 514 l 40 289 z "},"«":{"ha":749,"x_min":0,"x_max":0,"o":"m 55 535 l 55 221 l 340 26 l 340 270 l 182 375 l 182 382 l 340 486 l 340 731 z m 409 535 l 409 221 l 695 26 l 695 270 l 538 375 l 538 382 l 695 486 l 695 731 z "},"»":{"ha":738,"x_min":0,"x_max":0,"o":"m 340 535 l 53 731 l 53 486 l 211 382 l 211 375 l 53 270 l 53 26 l 340 221 z m 694 535 l 409 731 l 409 486 l 566 382 l 566 375 l 409 270 l 409 26 l 694 221 z "},"‹":{"ha":393,"x_min":0,"x_max":0,"o":"m 55 535 l 55 221 l 340 26 l 340 270 l 182 375 l 182 382 l 340 486 l 340 731 z "},"›":{"ha":382,"x_min":0,"x_max":0,"o":"m 339 535 l 53 731 l 53 486 l 211 382 l 211 375 l 53 270 l 53 26 l 339 221 z "},"„":{"ha":844,"x_min":0,"x_max":0,"o":"m 360 270 l 48 270 l 48 0 l 172 0 b 48 -157 172 -81 136 -157 l 48 -264 b 360 69 256 -264 360 -175 z m 797 270 l 485 270 l 485 0 l 609 0 b 485 -157 609 -81 573 -157 l 485 -264 b 797 69 694 -264 797 -175 z "},"“":{"ha":844,"x_min":0,"x_max":0,"o":"m 48 458 l 360 458 l 360 727 l 236 727 b 360 884 236 808 271 884 l 360 992 b 48 658 151 992 48 902 z m 485 458 l 797 458 l 797 727 l 673 727 b 797 884 673 808 708 884 l 797 992 b 485 658 588 992 485 902 z "},"”":{"ha":844,"x_min":0,"x_max":0,"o":"m 360 992 l 48 992 l 48 722 l 172 722 b 48 565 172 641 136 565 l 48 458 b 360 791 256 458 360 547 z m 797 992 l 485 992 l 485 722 l 609 722 b 485 565 609 641 573 565 l 485 458 b 797 791 694 458 797 547 z "},"‘":{"ha":407,"x_min":0,"x_max":0,"o":"m 48 458 l 360 458 l 360 727 l 236 727 b 360 884 236 808 271 884 l 360 992 b 48 658 151 992 48 902 z "},"’":{"ha":407,"x_min":0,"x_max":0,"o":"m 360 992 l 48 992 l 48 722 l 172 722 b 48 565 172 641 136 565 l 48 458 b 360 791 256 458 360 547 z "},"‚":{"ha":407,"x_min":0,"x_max":0,"o":"m 360 270 l 48 270 l 48 0 l 172 0 b 48 -157 172 -81 136 -157 l 48 -264 b 360 69 256 -264 360 -175 z "}," ":{"ha":421,"x_min":0,"x_max":0,"o":""}," ":{"ha":367,"x_min":0,"x_max":0,"o":""}," ":{"ha":475,"x_min":0,"x_max":0,"o":""}," ":{"ha":188,"x_min":0,"x_max":0,"o":""},"​":{"ha":0,"x_min":0,"x_max":0,"o":""},"\r":{"ha":188,"x_min":0,"x_max":0,"o":""},"¢":{"ha":1125,"x_min":0,"x_max":0,"o":"m 1088 297 l 743 297 b 597 193 737 254 702 203 l 597 558 b 742 458 702 547 735 498 l 1086 458 b 597 781 1065 638 944 771 l 597 911 l 512 911 l 512 781 b 37 375 192 768 37 620 b 512 -30 37 130 192 -18 l 512 -182 l 597 -182 l 597 -30 b 1088 297 944 -21 1069 112 z m 364 375 b 512 557 364 475 413 542 l 512 194 b 364 375 413 208 364 276 z "},"¤":{"ha":918,"x_min":0,"x_max":0,"o":"m 845 511 b 781 716 845 587 822 657 l 866 800 l 751 903 l 669 823 b 458 883 608 861 535 883 b 249 824 381 883 309 861 l 168 903 l 52 800 l 136 718 b 70 511 95 658 70 588 b 136 305 70 434 95 364 l 52 222 l 168 120 l 249 198 b 458 139 309 161 381 139 b 669 199 535 139 608 161 l 751 120 l 866 222 l 781 306 b 845 511 822 365 845 435 z m 458 320 b 271 511 356 320 271 405 b 458 702 271 617 356 702 b 645 511 560 702 645 617 b 458 320 645 405 560 320 z "},"$":{"ha":1182,"x_min":0,"x_max":0,"o":"m 1145 303 b 827 593 1145 485 1032 570 l 620 617 l 620 778 b 766 675 705 770 757 740 l 1112 675 b 620 987 1104 911 900 980 l 620 1102 l 535 1102 l 535 987 b 42 683 249 982 42 913 b 364 403 43 501 163 429 l 535 381 l 535 199 b 367 329 439 205 378 234 l 20 329 b 535 -15 30 58 226 -10 l 535 -162 l 620 -162 l 620 -15 b 1145 303 945 -10 1145 52 z m 498 631 b 391 702 427 639 391 657 b 535 780 391 744 431 775 l 535 627 z m 620 198 l 620 370 l 658 365 b 785 282 735 356 785 337 b 620 198 785 230 734 202 z "},"€":{"ha":1181,"x_min":0,"x_max":0,"o":"m 528 347 l 742 347 l 816 450 l 496 450 b 495 486 495 462 495 474 b 496 524 495 499 495 512 l 869 524 l 945 626 l 528 626 b 766 739 570 700 652 739 b 983 681 856 739 930 716 l 1143 889 b 766 988 1069 947 916 988 b 177 626 449 988 234 873 l 103 626 l 31 524 l 163 524 b 162 486 162 511 162 499 b 163 450 162 474 162 462 l 106 450 l 31 347 l 177 347 b 768 -15 234 99 449 -15 b 1066 32 860 -15 983 -6 l 1066 313 b 768 233 980 261 880 233 b 528 347 652 233 570 273 z "},"ƒ":{"ha":857,"x_min":0,"x_max":0,"o":"m 769 840 b 845 836 811 840 827 838 l 845 1041 b 740 1046 821 1043 787 1046 b 327 802 510 1046 367 1012 l 293 629 l 118 629 l 118 434 l 255 434 l 219 250 b 88 175 205 179 149 175 b 13 179 47 175 31 178 l 13 -26 b 117 -31 37 -28 71 -31 b 531 213 348 -31 490 3 l 575 434 l 782 434 l 782 629 l 613 629 l 639 765 b 769 840 652 837 709 840 z "},"₣":{"ha":1372,"x_min":0,"x_max":0,"o":"m 83 0 l 399 0 l 399 376 l 551 376 l 551 0 l 816 0 l 816 156 l 970 156 l 1065 0 l 1350 0 l 1226 206 l 1226 214 b 1336 378 1291 238 1336 281 b 1077 602 1336 516 1256 602 l 399 602 l 399 728 l 1065 728 l 1065 972 l 83 972 z m 816 409 l 984 409 b 1040 360 1020 409 1040 390 b 984 314 1040 332 1021 314 l 816 314 z "},"£":{"ha":1131,"x_min":0,"x_max":0,"o":"m 812 228 b 632 254 751 228 694 239 b 642 313 639 271 642 290 b 609 407 642 347 630 378 l 776 407 l 776 524 l 528 524 b 448 681 488 576 448 624 b 590 773 448 747 508 773 b 763 651 675 773 750 745 l 1077 651 b 576 990 1045 929 839 990 b 128 703 314 990 128 929 b 206 524 128 634 162 575 l 72 524 l 72 407 l 294 407 b 334 338 312 384 327 361 b 229 362 301 352 268 362 b 39 175 141 362 39 316 b 274 -19 39 38 138 -19 b 533 79 384 -19 479 15 b 860 -19 624 27 730 -19 b 1067 20 934 -19 1027 -7 l 1067 298 b 812 228 987 240 911 228 z m 259 116 b 197 170 225 116 197 136 b 261 229 197 206 223 229 b 339 196 283 229 310 215 b 259 116 329 137 293 116 z "},"¥":{"ha":1210,"x_min":0,"x_max":0,"o":"m 1223 972 l 852 972 l 605 592 l 358 972 l -13 972 l 267 577 l 123 577 l 123 461 l 349 461 l 404 384 l 123 384 l 123 268 l 447 268 l 447 0 l 763 0 l 763 268 l 1064 268 l 1064 384 l 806 384 l 860 461 l 1064 461 l 1064 577 l 942 577 z "},"∙":{"ha":501,"x_min":0,"x_max":0,"o":"m 250 278 b 416 445 342 278 416 353 b 250 611 416 536 342 611 b 84 445 159 611 84 536 b 250 278 84 353 159 278 z "},"+":{"ha":903,"x_min":0,"x_max":0,"o":"m 818 552 l 556 552 l 556 818 l 347 818 l 347 552 l 84 552 l 84 354 l 347 354 l 347 85 l 556 85 l 556 354 l 818 354 z "},"−":{"ha":903,"x_min":0,"x_max":0,"o":"m 818 551 l 84 551 l 84 355 l 818 355 z "},"×":{"ha":879,"x_min":0,"x_max":0,"o":"m 794 670 l 656 809 l 439 591 l 223 809 l 84 670 l 301 453 l 84 235 l 223 97 l 439 314 l 656 97 l 794 235 l 577 453 z "},"÷":{"ha":903,"x_min":0,"x_max":0,"o":"m 451 634 b 583 766 524 634 583 694 b 451 898 583 839 524 898 b 319 766 379 898 319 839 b 451 634 319 694 379 634 z m 818 551 l 84 551 l 84 355 l 818 355 z m 451 7 b 583 139 524 7 583 67 b 451 272 583 212 524 272 b 319 139 379 272 319 212 b 451 7 319 67 379 7 z "},"=":{"ha":903,"x_min":0,"x_max":0,"o":"m 818 704 l 84 704 l 84 508 l 818 508 z m 818 395 l 84 395 l 84 199 l 818 199 z "},"≠":{"ha":903,"x_min":0,"x_max":0,"o":"m 818 508 l 818 704 l 711 704 l 791 826 l 595 826 l 516 704 l 84 704 l 84 508 l 390 508 l 316 395 l 84 395 l 84 199 l 191 199 l 112 77 l 307 77 l 386 199 l 818 199 l 818 395 l 512 395 l 586 508 z "},">":{"ha":903,"x_min":0,"x_max":0,"o":"m 818 528 l 84 822 l 84 617 l 511 451 l 511 443 l 84 278 l 84 72 l 818 366 z "},"<":{"ha":900,"x_min":0,"x_max":0,"o":"m 84 528 l 84 366 l 815 72 l 815 278 l 390 443 l 390 451 l 815 617 l 815 822 z "},"≥":{"ha":903,"x_min":0,"x_max":0,"o":"m 817 598 l 86 823 l 86 645 l 498 521 l 498 513 l 86 388 l 86 211 l 817 436 z m 84 167 l 84 0 l 818 0 l 818 167 z "},"≤":{"ha":903,"x_min":0,"x_max":0,"o":"m 86 598 l 86 436 l 817 211 l 817 388 l 404 513 l 404 521 l 817 645 l 817 823 z m 818 167 l 84 167 l 84 0 l 818 0 z "},"±":{"ha":901,"x_min":0,"x_max":0,"o":"m 818 612 l 555 612 l 555 818 l 347 818 l 347 612 l 84 612 l 84 431 l 347 431 l 347 225 l 555 225 l 555 431 l 818 431 z m 84 167 l 84 0 l 818 0 l 818 167 z "},"≈":{"ha":903,"x_min":0,"x_max":0,"o":"m 644 621 b 510 663 586 621 540 648 l 410 713 b 258 756 376 730 326 756 b 84 661 182 756 126 707 l 84 457 b 258 575 157 535 208 575 b 393 533 316 575 362 548 l 493 483 b 644 440 526 466 576 440 b 818 536 719 440 776 489 l 818 740 b 644 621 745 660 694 621 z m 644 327 b 510 368 586 327 540 353 l 410 418 b 258 462 376 435 326 462 b 84 366 182 462 126 412 l 84 162 b 258 280 157 241 208 280 b 393 238 316 280 362 254 l 493 188 b 644 145 526 172 576 145 b 818 241 719 145 776 194 l 818 445 b 644 327 745 365 694 327 z "},"~":{"ha":903,"x_min":0,"x_max":0,"o":"m 644 486 b 510 527 586 486 540 512 l 410 577 b 258 620 376 594 326 620 b 84 525 182 620 126 571 l 84 321 b 258 439 157 400 208 439 b 393 397 316 439 362 412 l 493 347 b 644 304 526 330 576 304 b 818 400 719 304 776 353 l 818 604 b 644 486 745 524 694 486 z "},"¬":{"ha":901,"x_min":0,"x_max":0,"o":"m 818 612 l 84 612 l 84 416 l 611 416 l 611 214 l 818 214 z "},"∅":{"ha":1181,"x_min":0,"x_max":0,"o":"m 939 864 l 1044 1003 l 903 1003 l 850 932 b 590 1003 774 976 685 1003 b 83 496 310 1003 83 776 b 242 128 83 350 144 219 l 138 -11 l 279 -11 l 332 60 b 590 -11 408 14 496 -11 b 1097 496 871 -11 1097 215 b 939 864 1097 640 1036 771 z m 213 496 b 590 888 213 713 381 888 b 778 836 658 888 722 869 l 317 225 b 213 496 251 296 213 392 z m 590 104 b 404 154 522 104 458 122 l 865 765 b 968 496 929 694 968 600 b 590 104 968 279 800 104 z "},"∞":{"ha":1181,"x_min":0,"x_max":0,"o":"m 833 692 b 593 562 727 692 652 628 b 341 692 537 628 457 692 b 84 426 183 692 84 556 b 341 155 84 286 183 155 b 580 286 441 155 520 219 b 833 155 637 219 719 155 b 1095 426 994 155 1095 286 b 833 692 1095 556 994 692 z m 344 298 b 239 426 275 298 239 356 b 344 551 239 494 272 551 b 499 408 408 551 445 503 b 344 298 453 338 413 298 z m 830 298 b 675 440 765 298 726 347 b 830 551 719 510 761 551 b 938 426 905 551 938 494 b 830 298 938 356 901 298 z "},"∫":{"ha":764,"x_min":0,"x_max":0,"o":"m 591 1046 b 225 802 361 1046 225 995 l 225 38 b 103 -51 225 -32 208 -51 b 27 -47 62 -51 44 -49 l 27 -248 b 172 -257 43 -248 88 -257 b 539 -13 403 -257 539 -206 l 539 751 b 661 840 539 821 556 840 b 737 836 702 840 720 838 l 737 1037 b 591 1046 721 1037 676 1046 z "},"Ω":{"ha":1432,"x_min":0,"x_max":0,"o":"m 49 0 l 646 0 l 646 252 b 414 515 516 272 414 372 b 716 761 414 668 526 761 b 1017 515 905 761 1017 668 b 785 252 1017 372 916 272 l 785 0 l 1382 0 l 1382 184 l 1077 184 l 1077 193 b 1368 550 1240 218 1368 327 b 716 1024 1368 858 1116 1024 b 63 550 315 1024 63 858 b 355 193 63 327 191 218 l 355 184 l 49 184 z "},"∆":{"ha":1378,"x_min":0,"x_max":0,"o":"m 908 992 l 469 992 l 6 0 l 1372 0 z m 435 221 l 684 777 l 693 777 l 940 221 z "},"∏":{"ha":1293,"x_min":0,"x_max":0,"o":"m 1220 -206 l 1220 992 l 73 992 l 73 -206 l 393 -206 l 393 721 l 901 721 l 901 -206 z "},"∑":{"ha":1146,"x_min":0,"x_max":0,"o":"m 1093 59 l 498 59 l 877 413 l 561 727 l 1068 727 l 1068 992 l 96 992 l 96 765 l 471 394 l 73 23 l 73 -206 l 1093 -206 z "},"√":{"ha":972,"x_min":0,"x_max":0,"o":"m 934 972 l 793 972 l 479 -39 l 476 -39 l 308 411 l 39 300 l 81 216 l 187 261 l 360 -206 l 569 -206 z "},"∂":{"ha":1142,"x_min":0,"x_max":0,"o":"m 522 1039 b 108 943 355 1039 210 1002 l 198 731 b 491 808 282 778 386 808 b 742 620 605 808 709 777 b 514 666 674 656 588 666 b 49 305 302 666 49 594 b 540 -32 49 67 287 -32 b 1092 501 883 -32 1092 104 b 522 1039 1092 959 778 1039 z m 538 187 b 376 308 447 187 376 226 b 585 447 376 409 476 447 b 749 401 648 447 708 434 b 538 187 734 259 682 187 z "},"%":{"ha":1608,"x_min":0,"x_max":0,"o":"m 359 992 b 39 707 140 992 39 905 b 359 422 39 509 140 422 b 679 707 578 422 679 509 b 359 992 679 905 578 992 z m 1032 972 l 398 0 l 577 0 l 1210 972 z m 359 574 b 256 707 298 574 256 602 b 359 840 256 811 298 840 b 463 707 420 840 463 811 b 359 574 463 602 420 574 z m 1249 550 b 929 265 1030 550 929 463 b 1249 -19 929 68 1030 -19 b 1569 265 1468 -19 1569 68 b 1249 550 1569 463 1468 550 z m 1249 132 b 1146 265 1188 132 1146 161 b 1249 398 1146 370 1188 398 b 1352 265 1310 398 1352 370 b 1249 132 1352 161 1310 132 z "},"‰":{"ha":2318,"x_min":0,"x_max":0,"o":"m 359 992 b 39 707 140 992 39 905 b 359 422 39 509 140 422 b 679 707 578 422 679 509 b 359 992 679 905 578 992 z m 1032 972 l 398 0 l 577 0 l 1210 972 z m 359 574 b 256 707 298 574 256 602 b 359 840 256 811 298 840 b 463 707 420 840 463 811 b 359 574 463 602 420 574 z m 1249 550 b 929 265 1030 550 929 463 b 1249 -19 929 68 1030 -19 b 1569 265 1468 -19 1569 68 b 1249 550 1569 463 1468 550 z m 1959 550 b 1639 265 1740 550 1639 463 b 1959 -19 1639 68 1740 -19 b 2279 265 2178 -19 2279 68 b 1959 550 2279 463 2178 550 z m 1249 132 b 1146 265 1188 132 1146 161 b 1249 398 1146 370 1188 398 b 1352 265 1310 398 1352 370 b 1249 132 1352 161 1310 132 z m 1959 132 b 1856 265 1898 132 1856 161 b 1959 398 1856 370 1898 398 b 2062 265 2020 398 2062 370 b 1959 132 2062 161 2020 132 z "},"◊":{"ha":1065,"x_min":0,"x_max":0,"o":"m 621 1036 l 445 1036 l 73 497 l 445 -42 l 621 -42 l 993 497 z m 534 98 l 270 497 l 534 898 l 797 497 z "},"@":{"ha":1464,"x_min":0,"x_max":0,"o":"m 875 683 l 861 611 l 853 611 b 694 698 831 666 774 697 b 481 610 599 700 536 665 b 368 314 408 537 368 420 b 606 67 368 160 462 67 b 807 146 680 67 749 83 l 815 146 b 985 67 830 93 892 67 b 1422 519 1194 67 1422 196 b 750 1046 1422 816 1135 1046 b 43 354 356 1046 43 752 b 711 -274 43 -18 300 -274 b 1290 -18 980 -274 1190 -157 l 1077 -18 b 717 -122 965 -91 858 -122 b 226 347 406 -122 226 64 b 745 893 226 660 454 893 b 1237 491 1042 893 1237 736 b 1014 206 1237 267 1118 206 b 979 252 980 206 974 221 l 1065 683 z m 732 558 b 834 444 795 558 834 522 b 776 267 834 386 816 320 b 664 207 747 229 710 207 b 562 321 601 207 562 244 b 620 498 562 379 580 445 b 732 558 649 536 686 558 z "},"&":{"ha":1383,"x_min":0,"x_max":0,"o":"m 1388 0 l 1134 210 b 1245 525 1203 294 1245 399 l 954 525 b 921 386 954 479 942 431 l 761 518 l 902 576 b 1077 772 1006 618 1077 661 b 630 1014 1077 937 930 1014 b 187 772 333 1014 187 937 b 315 565 187 679 225 639 l 324 557 l 270 538 b 43 282 118 484 43 425 b 577 -20 43 59 245 -20 b 931 56 701 -20 824 6 l 999 0 z m 586 663 b 508 759 536 705 508 730 b 630 836 508 800 538 836 b 754 760 725 836 754 800 b 656 675 754 719 719 698 l 597 654 z m 577 178 b 388 290 450 178 388 227 b 500 412 388 343 426 381 l 742 212 b 577 178 694 191 639 178 z "},"¶":{"ha":1026,"x_min":0,"x_max":0,"o":"m 953 990 l 406 990 b 39 683 160 990 39 879 b 403 376 39 488 158 376 l 424 376 l 424 -256 l 626 -256 l 626 823 l 750 823 l 750 -256 l 953 -256 z "},"§":{"ha":1225,"x_min":0,"x_max":0,"o":"m 1214 339 b 949 600 1214 497 1130 561 l 518 694 b 455 749 486 700 455 711 b 591 823 455 797 501 823 b 764 722 682 823 758 799 l 1068 722 b 603 1014 1059 956 856 1014 b 144 730 344 1014 144 960 b 168 626 144 691 153 649 b 11 413 80 590 11 527 b 267 160 11 267 77 203 l 711 60 b 793 -9 748 52 793 39 b 617 -87 793 -67 732 -87 b 411 36 501 -87 415 -69 l 108 36 b 603 -285 117 -229 307 -285 b 1113 13 908 -285 1113 -234 b 1081 133 1113 59 1103 100 b 1214 339 1160 172 1214 235 z m 397 370 b 292 448 335 384 292 399 b 324 502 292 470 303 490 b 398 482 347 496 372 488 l 797 392 b 923 302 864 377 923 360 b 905 255 923 283 918 268 b 850 271 888 262 869 267 z "},"©":{"ha":1156,"x_min":0,"x_max":0,"o":"m 578 -22 b 1113 496 873 -22 1113 210 b 578 1014 1113 782 873 1014 b 43 496 282 1014 43 782 b 578 -22 43 210 282 -22 z m 578 67 b 136 496 333 67 136 259 b 578 924 136 733 333 924 b 1020 496 822 924 1020 733 b 578 67 1020 259 822 67 z m 855 421 l 715 421 b 579 309 708 351 666 309 b 431 497 496 309 431 360 b 579 683 431 631 496 683 b 708 595 658 683 699 651 l 848 595 b 579 793 840 696 755 793 b 291 497 411 793 291 693 b 579 198 291 298 411 198 b 855 421 758 198 848 303 z "},"®":{"ha":1156,"x_min":0,"x_max":0,"o":"m 578 1014 b 43 496 282 1014 43 782 b 578 -22 43 210 282 -22 b 1113 496 873 -22 1113 210 b 578 1014 1113 782 873 1014 z m 578 67 b 136 496 335 67 136 260 b 578 924 136 731 335 924 b 1020 496 821 924 1020 731 b 578 67 1020 260 821 67 z m 835 598 b 621 781 835 710 758 781 l 330 781 l 330 211 l 465 211 l 465 414 l 573 414 l 695 211 l 851 211 l 715 427 b 835 598 794 451 835 511 z m 465 679 l 596 679 b 696 598 662 679 696 647 b 596 515 696 547 662 515 l 465 515 z "},"™":{"ha":1410,"x_min":0,"x_max":0,"o":"m 590 992 l 39 992 l 39 856 l 235 856 l 235 494 l 395 494 l 395 856 l 590 856 z m 1371 992 l 1111 992 l 1020 705 l 1011 705 l 918 992 l 665 992 l 665 494 l 817 494 l 817 838 l 826 838 l 951 494 l 1079 494 l 1202 833 l 1210 833 l 1210 494 l 1371 494 z "},"°":{"ha":490,"x_min":0,"x_max":0,"o":"m 245 557 b 464 773 368 557 464 644 b 245 989 464 902 368 989 b 27 773 123 989 27 902 b 245 557 27 644 123 557 z m 245 660 b 138 773 178 660 138 708 b 245 886 138 838 178 886 b 353 773 313 886 353 838 b 245 660 353 708 313 660 z "},"|":{"ha":446,"x_min":0,"x_max":0,"o":"m 373 1108 l 73 1108 l 73 -314 l 373 -314 z "},"¦":{"ha":446,"x_min":0,"x_max":0,"o":"m 373 1108 l 73 1108 l 73 501 l 373 501 z m 373 292 l 73 292 l 73 -314 l 373 -314 z "},"†":{"ha":988,"x_min":0,"x_max":0,"o":"m 950 700 l 643 700 l 643 992 l 346 992 l 346 700 l 39 700 l 39 456 l 346 456 l 346 -249 l 643 -249 l 643 456 l 950 456 z "},"‡":{"ha":988,"x_min":0,"x_max":0,"o":"m 950 474 l 950 700 l 643 700 l 643 992 l 346 992 l 346 700 l 39 700 l 39 474 l 346 474 l 346 269 l 39 269 l 39 43 l 346 43 l 346 -249 l 643 -249 l 643 43 l 950 43 l 950 269 l 643 269 l 643 474 z "},"№":{"ha":2083,"x_min":0,"x_max":0,"o":"m 1683 1004 b 1357 762 1457 1004 1357 913 b 1683 518 1357 606 1457 518 b 2010 762 1908 518 2010 606 b 1683 1004 2010 913 1908 1004 z m 916 992 l 916 394 l 907 394 l 450 992 l 73 992 l 73 0 l 377 0 l 377 610 l 385 610 l 853 0 l 1220 0 l 1220 992 z m 1683 656 b 1568 762 1603 656 1568 697 b 1683 865 1568 824 1603 865 b 1798 762 1764 865 1798 824 b 1683 656 1798 697 1764 656 z m 1357 159 l 1357 0 l 2010 0 l 2010 159 z "},"^":{"ha":846,"x_min":0,"x_max":0,"o":"m 533 972 l 314 972 l 39 490 l 260 490 l 420 788 l 428 788 l 588 490 l 808 490 z "},"̦":{"ha":0,"x_min":0,"x_max":0,"o":"m -73 -85 l -392 -85 l -392 -257 l -252 -257 b -392 -326 -252 -295 -258 -326 l -392 -406 b -73 -214 -95 -406 -73 -349 z "},"ʼ":{"ha":458,"x_min":0,"x_max":0,"o":"m 385 1006 l 73 1006 l 73 764 l 214 764 b 73 621 214 690 182 621 l 73 523 b 385 827 291 523 385 605 z "},"´":{"ha":679,"x_min":0,"x_max":0,"o":"m 606 1040 l 184 1040 l 73 834 l 341 834 z "},"˘":{"ha":810,"x_min":0,"x_max":0,"o":"m 737 1042 l 491 1042 b 404 984 485 999 453 984 b 318 1042 356 984 324 999 l 73 1042 b 404 816 77 886 249 816 b 737 1042 560 816 732 886 z "},"ˇ":{"ha":947,"x_min":0,"x_max":0,"o":"m 555 1038 l 477 940 l 469 940 l 391 1038 l 73 1038 l 255 834 l 691 834 l 874 1038 z "},"¸":{"ha":642,"x_min":0,"x_max":0,"o":"m 73 -328 b 282 -353 151 -350 216 -353 b 568 -203 485 -353 568 -314 b 353 -66 568 -103 501 -66 b 319 -69 343 -66 326 -68 l 403 35 l 263 35 l 148 -106 l 148 -176 l 156 -176 b 270 -165 184 -169 243 -165 b 352 -204 321 -165 352 -173 b 270 -244 352 -235 321 -244 b 81 -214 195 -244 160 -238 l 73 -214 z "},"ˆ":{"ha":947,"x_min":0,"x_max":0,"o":"m 555 834 l 874 834 l 691 1038 l 255 1038 l 73 834 l 391 834 l 469 933 l 477 933 z "},"¨":{"ha":844,"x_min":0,"x_max":0,"o":"m 73 839 l 361 839 l 361 1011 l 73 1011 z m 484 839 l 772 839 l 772 1011 l 484 1011 z "},"˙":{"ha":465,"x_min":0,"x_max":0,"o":"m 73 839 l 392 839 l 392 1011 l 73 1011 z "},"`":{"ha":679,"x_min":0,"x_max":0,"o":"m 73 1040 l 338 834 l 606 834 l 495 1040 z "},"˝":{"ha":981,"x_min":0,"x_max":0,"o":"m 505 1040 l 176 1040 l 73 834 l 324 834 z m 907 1040 l 578 1040 l 475 834 l 726 834 z "},"¯":{"ha":811,"x_min":0,"x_max":0,"o":"m 738 849 l 738 1019 l 73 1019 l 73 849 z "},"˛":{"ha":565,"x_min":0,"x_max":0,"o":"m 410 -183 b 336 -131 371 -183 336 -169 b 492 0 336 -88 394 -31 l 347 24 b 73 -180 203 8 73 -82 b 348 -335 73 -276 160 -335 b 492 -322 409 -335 451 -332 l 492 -172 b 410 -183 473 -176 449 -183 z "},"˚":{"ha":631,"x_min":0,"x_max":0,"o":"m 315 816 b 558 1007 450 816 558 888 b 315 1197 558 1125 450 1197 b 73 1007 181 1197 73 1125 b 315 816 73 888 181 816 z m 315 941 b 237 1007 273 941 237 966 b 315 1073 237 1048 273 1073 b 394 1007 358 1073 394 1048 b 315 941 394 966 358 941 z "},"˜":{"ha":882,"x_min":0,"x_max":0,"o":"m 589 809 b 808 1043 686 809 808 880 l 604 1043 b 558 994 602 1008 595 994 b 290 1058 503 994 383 1058 b 73 824 192 1058 73 987 l 277 824 b 323 874 280 859 287 874 b 589 809 379 874 497 809 z "}}}
